<svg width="73" height="111" viewBox="0 0 73 111" fill="none" xmlns="http://www.w3.org/2000/svg">
<g clip-path="url(#clip0_1_5854)">
<path d="M65.1066 105H7.89343C6.29752 105 5 103.72 5 102.145V7.85472C5 6.28016 6.29752 5 7.89343 5H65.1066C66.7025 5 68 6.28016 68 7.85472V102.145C68 103.72 66.7025 105 65.1066 105ZM7.89343 5.80289C6.74736 5.80289 5.81378 6.72398 5.81378 7.85472V102.145C5.81378 103.276 6.74736 104.197 7.89343 104.197H65.1066C66.2526 104.197 67.1862 103.276 67.1862 102.145V7.85472C67.1862 6.72398 66.2526 5.80289 65.1066 5.80289H7.89343Z" fill="#CBD5E3"/>
<path d="M9.47574 94.9103C9.03947 94.9103 8.68457 94.5602 8.68457 94.1298V94.0182C8.68457 93.5878 9.03947 93.2377 9.47574 93.2377C9.91202 93.2377 10.2669 93.5878 10.2669 94.0182V94.1298C10.2669 94.5602 9.91202 94.9103 9.47574 94.9103ZM9.47574 91.6542C9.03947 91.6542 8.68457 91.304 8.68457 90.8736V90.7621C8.68457 90.3316 9.03947 89.9815 9.47574 89.9815C9.91202 89.9815 10.2669 90.3316 10.2669 90.7621V90.8736C10.2669 91.304 9.91202 91.6542 9.47574 91.6542ZM9.47574 88.398C9.03947 88.398 8.68457 88.0479 8.68457 87.6174V87.5059C8.68457 87.0755 9.03947 86.7253 9.47574 86.7253C9.91202 86.7253 10.2669 87.0755 10.2669 87.5059V87.6174C10.2669 88.0479 9.91202 88.398 9.47574 88.398ZM9.47574 85.1418C9.03947 85.1418 8.68457 84.7917 8.68457 84.3613V84.2497C8.68457 83.8193 9.03947 83.4692 9.47574 83.4692C9.91202 83.4692 10.2669 83.8193 10.2669 84.2497V84.3613C10.2669 84.7917 9.91202 85.1418 9.47574 85.1418ZM9.47574 81.8857C9.03947 81.8857 8.68457 81.5355 8.68457 81.1051V80.9936C8.68457 80.5631 9.03947 80.213 9.47574 80.213C9.91202 80.213 10.2669 80.5631 10.2669 80.9936V81.1051C10.2669 81.5355 9.91202 81.8857 9.47574 81.8857ZM9.47574 78.6295C9.03947 78.6295 8.68457 78.2794 8.68457 77.8489V77.7374C8.68457 77.307 9.03947 76.9568 9.47574 76.9568C9.91202 76.9568 10.2669 77.307 10.2669 77.7374V77.8489C10.2669 78.2794 9.91202 78.6295 9.47574 78.6295ZM9.47574 75.3733C9.03947 75.3733 8.68457 75.0232 8.68457 74.5928V74.4812C8.68457 74.0508 9.03947 73.7007 9.47574 73.7007C9.91202 73.7007 10.2669 74.0508 10.2669 74.4812V74.5928C10.2669 75.0232 9.91202 75.3733 9.47574 75.3733ZM9.47574 72.1172C9.03947 72.1172 8.68457 71.767 8.68457 71.3366V71.2251C8.68457 70.7946 9.03947 70.4445 9.47574 70.4445C9.91202 70.4445 10.2669 70.7946 10.2669 71.2251V71.3366C10.2669 71.767 9.91202 72.1172 9.47574 72.1172ZM9.47574 68.861C9.03947 68.861 8.68457 68.5109 8.68457 68.0804V67.9689C8.68457 67.5385 9.03947 67.1883 9.47574 67.1883C9.91202 67.1883 10.2669 67.5385 10.2669 67.9689V68.0804C10.2669 68.5109 9.91202 68.861 9.47574 68.861ZM9.47574 65.6048C9.03947 65.6048 8.68457 65.2547 8.68457 64.8243V64.7127C8.68457 64.2823 9.03947 63.9322 9.47574 63.9322C9.91202 63.9322 10.2669 64.2823 10.2669 64.7127V64.8243C10.2669 65.2547 9.91202 65.6048 9.47574 65.6048ZM9.47574 62.3487C9.03947 62.3487 8.68457 61.9985 8.68457 61.5681V61.4566C8.68457 61.0261 9.03947 60.676 9.47574 60.676C9.91202 60.676 10.2669 61.0261 10.2669 61.4566V61.5681C10.2669 61.9985 9.91202 62.3487 9.47574 62.3487ZM9.47574 59.0925C9.03947 59.0925 8.68457 58.7424 8.68457 58.3119V58.2004C8.68457 57.77 9.03947 57.4198 9.47574 57.4198C9.91202 57.4198 10.2669 57.77 10.2669 58.2004V58.3119C10.2669 58.7424 9.91202 59.0925 9.47574 59.0925ZM9.47574 55.8363C9.03947 55.8363 8.68457 55.4862 8.68457 55.0558V54.9442C8.68457 54.5138 9.03947 54.1637 9.47574 54.1637C9.91202 54.1637 10.2669 54.5138 10.2669 54.9442V55.0558C10.2669 55.4862 9.91202 55.8363 9.47574 55.8363ZM9.47574 52.5802C9.03947 52.5802 8.68457 52.23 8.68457 51.7996V51.6881C8.68457 51.2576 9.03947 50.9075 9.47574 50.9075C9.91202 50.9075 10.2669 51.2576 10.2669 51.6881V51.7996C10.2669 52.23 9.91202 52.5802 9.47574 52.5802ZM9.47574 49.324C9.03947 49.324 8.68457 48.9739 8.68457 48.5434V48.4319C8.68457 48.0015 9.03947 47.6513 9.47574 47.6513C9.91202 47.6513 10.2669 48.0015 10.2669 48.4319V48.5434C10.2669 48.9739 9.91202 49.324 9.47574 49.324ZM9.47574 46.0678C9.03947 46.0678 8.68457 45.7177 8.68457 45.2873V45.1757C8.68457 44.7453 9.03947 44.3952 9.47574 44.3952C9.91202 44.3952 10.2669 44.7453 10.2669 45.1757V45.2873C10.2669 45.7177 9.91202 46.0678 9.47574 46.0678ZM9.47574 42.8117C9.03947 42.8117 8.68457 42.4615 8.68457 42.0311V41.9196C8.68457 41.4891 9.03947 41.139 9.47574 41.139C9.91202 41.139 10.2669 41.4891 10.2669 41.9196V42.0311C10.2669 42.4615 9.91202 42.8117 9.47574 42.8117ZM9.47574 39.5577C9.03947 39.5577 8.68457 39.2076 8.68457 38.7772V38.6656C8.68457 38.2352 9.03947 37.8851 9.47574 37.8851C9.91202 37.8851 10.2669 38.2352 10.2669 38.6656V38.7772C10.2669 39.2076 9.91202 39.5577 9.47574 39.5577ZM9.47574 36.3016C9.03947 36.3016 8.68457 35.9514 8.68457 35.521V35.4095C8.68457 34.979 9.03947 34.6289 9.47574 34.6289C9.91202 34.6289 10.2669 34.979 10.2669 35.4095V35.521C10.2669 35.9514 9.91202 36.3016 9.47574 36.3016ZM9.47574 33.0454C9.03947 33.0454 8.68457 32.6953 8.68457 32.2648V32.1533C8.68457 31.7229 9.03947 31.3727 9.47574 31.3727C9.91202 31.3727 10.2669 31.7229 10.2669 32.1533V32.2648C10.2669 32.6953 9.91202 33.0454 9.47574 33.0454ZM9.47574 29.7892C9.03947 29.7892 8.68457 29.4391 8.68457 29.0087V28.8971C8.68457 28.4667 9.03947 28.1166 9.47574 28.1166C9.91202 28.1166 10.2669 28.4667 10.2669 28.8971V29.0087C10.2669 29.4391 9.91202 29.7892 9.47574 29.7892ZM9.47574 26.5331C9.03947 26.5331 8.68457 26.1829 8.68457 25.7525V25.641C8.68457 25.2105 9.03947 24.8604 9.47574 24.8604C9.91202 24.8604 10.2669 25.2105 10.2669 25.641V25.7525C10.2669 26.1829 9.91202 26.5331 9.47574 26.5331ZM9.47574 23.2769C9.03947 23.2769 8.68457 22.9268 8.68457 22.4963V22.3848C8.68457 21.9544 9.03947 21.6042 9.47574 21.6042C9.91202 21.6042 10.2669 21.9544 10.2669 22.3848V22.4963C10.2669 22.9268 9.91202 23.2769 9.47574 23.2769ZM9.47574 20.0207C9.03947 20.0207 8.68457 19.6706 8.68457 19.2402V19.1286C8.68457 18.6982 9.03947 18.3481 9.47574 18.3481C9.91202 18.3481 10.2669 18.6982 10.2669 19.1286V19.2402C10.2669 19.6706 9.91202 20.0207 9.47574 20.0207ZM9.47574 16.7646C9.03947 16.7646 8.68457 16.4144 8.68457 15.984V15.8725C8.68457 15.442 9.03947 15.0919 9.47574 15.0919C9.91202 15.0919 10.2669 15.442 10.2669 15.8725V15.984C10.2669 16.4144 9.91202 16.7646 9.47574 16.7646Z" fill="#CBD5E3"/>
<path d="M56.8263 10.1965H56.7088C56.2725 10.1965 55.9176 9.84634 55.9176 9.4159C55.9176 8.98546 56.2725 8.63531 56.7088 8.63531H56.8263C57.2626 8.63531 57.6175 8.98546 57.6175 9.4159C57.6175 9.84634 57.2626 10.1965 56.8263 10.1965ZM53.4491 10.1965H53.3316C52.8953 10.1965 52.5404 9.84634 52.5404 9.4159C52.5404 8.98546 52.8953 8.63531 53.3316 8.63531H53.4491C53.8854 8.63531 54.2403 8.98546 54.2403 9.4159C54.2403 9.84634 53.8854 10.1965 53.4491 10.1965ZM50.0697 10.1965H49.9521C49.5159 10.1965 49.161 9.84634 49.161 9.4159C49.161 8.98546 49.5159 8.63531 49.9521 8.63531H50.0697C50.506 8.63531 50.8609 8.98546 50.8609 9.4159C50.8609 9.84634 50.506 10.1965 50.0697 10.1965ZM46.6925 10.1965H46.575C46.1387 10.1965 45.7838 9.84634 45.7838 9.4159C45.7838 8.98546 46.1387 8.63531 46.575 8.63531H46.6925C47.1288 8.63531 47.4837 8.98546 47.4837 9.4159C47.4837 9.84634 47.1288 10.1965 46.6925 10.1965ZM43.3131 10.1965H43.1955C42.7592 10.1965 42.4043 9.84634 42.4043 9.4159C42.4043 8.98546 42.7592 8.63531 43.1955 8.63531H43.3131C43.7493 8.63531 44.1042 8.98546 44.1042 9.4159C44.1042 9.84634 43.7493 10.1965 43.3131 10.1965ZM39.9359 10.1965H39.8183C39.3821 10.1965 39.0272 9.84634 39.0272 9.4159C39.0272 8.98546 39.3821 8.63531 39.8183 8.63531H39.9359C40.3722 8.63531 40.7271 8.98546 40.7271 9.4159C40.7271 9.84634 40.3722 10.1965 39.9359 10.1965ZM36.5587 10.1965H36.4412C36.0049 10.1965 35.65 9.84634 35.65 9.4159C35.65 8.98546 36.0049 8.63531 36.4412 8.63531H36.5587C36.995 8.63531 37.3499 8.98546 37.3499 9.4159C37.3499 9.84634 36.995 10.1965 36.5587 10.1965ZM33.1793 10.1965H33.0617C32.6254 10.1965 32.2705 9.84634 32.2705 9.4159C32.2705 8.98546 32.6254 8.63531 33.0617 8.63531H33.1793C33.6155 8.63531 33.9704 8.98546 33.9704 9.4159C33.9704 9.84634 33.6155 10.1965 33.1793 10.1965ZM29.8021 10.1965H29.6845C29.2483 10.1965 28.8934 9.84634 28.8934 9.4159C28.8934 8.98546 29.2483 8.63531 29.6845 8.63531H29.8021C30.2384 8.63531 30.5933 8.98546 30.5933 9.4159C30.5933 9.84634 30.2384 10.1965 29.8021 10.1965ZM26.4226 10.1965H26.3051C25.8688 10.1965 25.5139 9.84634 25.5139 9.4159C25.5139 8.98546 25.8688 8.63531 26.3051 8.63531H26.4226C26.8589 8.63531 27.2138 8.98546 27.2138 9.4159C27.2138 9.84634 26.8589 10.1965 26.4226 10.1965ZM23.0455 10.1965H22.9279C22.4916 10.1965 22.1367 9.84634 22.1367 9.4159C22.1367 8.98546 22.4916 8.63531 22.9279 8.63531H23.0455C23.4817 8.63531 23.8366 8.98546 23.8366 9.4159C23.8366 9.84634 23.4817 10.1965 23.0455 10.1965ZM19.666 10.1965H19.5485C19.1122 10.1965 18.7573 9.84634 18.7573 9.4159C18.7573 8.98546 19.1122 8.63531 19.5485 8.63531H19.666C20.1023 8.63531 20.4572 8.98546 20.4572 9.4159C20.4572 9.84634 20.1023 10.1965 19.666 10.1965ZM16.2888 10.1965H16.1713C15.735 10.1965 15.3801 9.84634 15.3801 9.4159C15.3801 8.98546 15.735 8.63531 16.1713 8.63531H16.2888C16.7251 8.63531 17.08 8.98546 17.08 9.4159C17.08 9.84634 16.7251 10.1965 16.2888 10.1965Z" fill="#CBD5E3"/>
<path d="M63.5242 94.9103C63.0879 94.9103 62.733 94.5602 62.733 94.1298V94.0182C62.733 93.5878 63.0879 93.2377 63.5242 93.2377C63.9605 93.2377 64.3154 93.5878 64.3154 94.0182V94.1298C64.3154 94.5602 63.9605 94.9103 63.5242 94.9103ZM63.5242 91.6542C63.0879 91.6542 62.733 91.304 62.733 90.8736V90.7621C62.733 90.3316 63.0879 89.9815 63.5242 89.9815C63.9605 89.9815 64.3154 90.3316 64.3154 90.7621V90.8736C64.3154 91.304 63.9605 91.6542 63.5242 91.6542ZM63.5242 88.398C63.0879 88.398 62.733 88.0479 62.733 87.6174V87.5059C62.733 87.0755 63.0879 86.7253 63.5242 86.7253C63.9605 86.7253 64.3154 87.0755 64.3154 87.5059V87.6174C64.3154 88.0479 63.9605 88.398 63.5242 88.398ZM63.5242 85.1418C63.0879 85.1418 62.733 84.7917 62.733 84.3613V84.2497C62.733 83.8193 63.0879 83.4692 63.5242 83.4692C63.9605 83.4692 64.3154 83.8193 64.3154 84.2497V84.3613C64.3154 84.7917 63.9605 85.1418 63.5242 85.1418ZM63.5242 81.8857C63.0879 81.8857 62.733 81.5355 62.733 81.1051V80.9936C62.733 80.5631 63.0879 80.213 63.5242 80.213C63.9605 80.213 64.3154 80.5631 64.3154 80.9936V81.1051C64.3154 81.5355 63.9605 81.8857 63.5242 81.8857ZM63.5242 78.6295C63.0879 78.6295 62.733 78.2794 62.733 77.8489V77.7374C62.733 77.307 63.0879 76.9568 63.5242 76.9568C63.9605 76.9568 64.3154 77.307 64.3154 77.7374V77.8489C64.3154 78.2794 63.9605 78.6295 63.5242 78.6295ZM63.5242 75.3733C63.0879 75.3733 62.733 75.0232 62.733 74.5928V74.4812C62.733 74.0508 63.0879 73.7007 63.5242 73.7007C63.9605 73.7007 64.3154 74.0508 64.3154 74.4812V74.5928C64.3154 75.0232 63.9605 75.3733 63.5242 75.3733ZM63.5242 72.1172C63.0879 72.1172 62.733 71.767 62.733 71.3366V71.2251C62.733 70.7946 63.0879 70.4445 63.5242 70.4445C63.9605 70.4445 64.3154 70.7946 64.3154 71.2251V71.3366C64.3154 71.767 63.9605 72.1172 63.5242 72.1172ZM63.5242 68.861C63.0879 68.861 62.733 68.5109 62.733 68.0804V67.9689C62.733 67.5385 63.0879 67.1883 63.5242 67.1883C63.9605 67.1883 64.3154 67.5385 64.3154 67.9689V68.0804C64.3154 68.5109 63.9605 68.861 63.5242 68.861ZM63.5242 65.6048C63.0879 65.6048 62.733 65.2547 62.733 64.8243V64.7127C62.733 64.2823 63.0879 63.9322 63.5242 63.9322C63.9605 63.9322 64.3154 64.2823 64.3154 64.7127V64.8243C64.3154 65.2547 63.9605 65.6048 63.5242 65.6048ZM63.5242 62.3487C63.0879 62.3487 62.733 61.9985 62.733 61.5681V61.4566C62.733 61.0261 63.0879 60.676 63.5242 60.676C63.9605 60.676 64.3154 61.0261 64.3154 61.4566V61.5681C64.3154 61.9985 63.9605 62.3487 63.5242 62.3487ZM63.5242 59.0925C63.0879 59.0925 62.733 58.7424 62.733 58.3119V58.2004C62.733 57.77 63.0879 57.4198 63.5242 57.4198C63.9605 57.4198 64.3154 57.77 64.3154 58.2004V58.3119C64.3154 58.7424 63.9605 59.0925 63.5242 59.0925ZM63.5242 55.8363C63.0879 55.8363 62.733 55.4862 62.733 55.0558V54.9442C62.733 54.5138 63.0879 54.1637 63.5242 54.1637C63.9605 54.1637 64.3154 54.5138 64.3154 54.9442V55.0558C64.3154 55.4862 63.9605 55.8363 63.5242 55.8363ZM63.5242 52.5802C63.0879 52.5802 62.733 52.23 62.733 51.7996V51.6881C62.733 51.2576 63.0879 50.9075 63.5242 50.9075C63.9605 50.9075 64.3154 51.2576 64.3154 51.6881V51.7996C64.3154 52.23 63.9605 52.5802 63.5242 52.5802ZM63.5242 49.324C63.0879 49.324 62.733 48.9739 62.733 48.5434V48.4319C62.733 48.0015 63.0879 47.6513 63.5242 47.6513C63.9605 47.6513 64.3154 48.0015 64.3154 48.4319V48.5434C64.3154 48.9739 63.9605 49.324 63.5242 49.324ZM63.5242 46.0678C63.0879 46.0678 62.733 45.7177 62.733 45.2873V45.1757C62.733 44.7453 63.0879 44.3952 63.5242 44.3952C63.9605 44.3952 64.3154 44.7453 64.3154 45.1757V45.2873C64.3154 45.7177 63.9605 46.0678 63.5242 46.0678ZM63.5242 42.8117C63.0879 42.8117 62.733 42.4615 62.733 42.0311V41.9196C62.733 41.4891 63.0879 41.139 63.5242 41.139C63.9605 41.139 64.3154 41.4891 64.3154 41.9196V42.0311C64.3154 42.4615 63.9605 42.8117 63.5242 42.8117ZM63.5242 39.5577C63.0879 39.5577 62.733 39.2076 62.733 38.7772V38.6656C62.733 38.2352 63.0879 37.8851 63.5242 37.8851C63.9605 37.8851 64.3154 38.2352 64.3154 38.6656V38.7772C64.3154 39.2076 63.9605 39.5577 63.5242 39.5577ZM63.5242 36.3016C63.0879 36.3016 62.733 35.9514 62.733 35.521V35.4095C62.733 34.979 63.0879 34.6289 63.5242 34.6289C63.9605 34.6289 64.3154 34.979 64.3154 35.4095V35.521C64.3154 35.9514 63.9605 36.3016 63.5242 36.3016ZM63.5242 33.0454C63.0879 33.0454 62.733 32.6953 62.733 32.2648V32.1533C62.733 31.7229 63.0879 31.3727 63.5242 31.3727C63.9605 31.3727 64.3154 31.7229 64.3154 32.1533V32.2648C64.3154 32.6953 63.9605 33.0454 63.5242 33.0454ZM63.5242 29.7892C63.0879 29.7892 62.733 29.4391 62.733 29.0087V28.8971C62.733 28.4667 63.0879 28.1166 63.5242 28.1166C63.9605 28.1166 64.3154 28.4667 64.3154 28.8971V29.0087C64.3154 29.4391 63.9605 29.7892 63.5242 29.7892ZM63.5242 26.5331C63.0879 26.5331 62.733 26.1829 62.733 25.7525V25.641C62.733 25.2105 63.0879 24.8604 63.5242 24.8604C63.9605 24.8604 64.3154 25.2105 64.3154 25.641V25.7525C64.3154 26.1829 63.9605 26.5331 63.5242 26.5331ZM63.5242 23.2769C63.0879 23.2769 62.733 22.9268 62.733 22.4963V22.3848C62.733 21.9544 63.0879 21.6042 63.5242 21.6042C63.9605 21.6042 64.3154 21.9544 64.3154 22.3848V22.4963C64.3154 22.9268 63.9605 23.2769 63.5242 23.2769ZM63.5242 20.0207C63.0879 20.0207 62.733 19.6706 62.733 19.2402V19.1286C62.733 18.6982 63.0879 18.3481 63.5242 18.3481C63.9605 18.3481 64.3154 18.6982 64.3154 19.1286V19.2402C64.3154 19.6706 63.9605 20.0207 63.5242 20.0207ZM63.5242 16.7646C63.0879 16.7646 62.733 16.4144 62.733 15.984V15.8725C62.733 15.442 63.0879 15.0919 63.5242 15.0919C63.9605 15.0919 64.3154 15.442 64.3154 15.8725V15.984C64.3154 16.4144 63.9605 16.7646 63.5242 16.7646Z" fill="#CBD5E3"/>
<path d="M56.8263 101.365H56.7088C56.2725 101.365 55.9176 101.015 55.9176 100.584C55.9176 100.154 56.2725 99.8035 56.7088 99.8035H56.8263C57.2626 99.8035 57.6175 100.154 57.6175 100.584C57.6175 101.015 57.2626 101.365 56.8263 101.365ZM53.4491 101.365H53.3316C52.8953 101.365 52.5404 101.015 52.5404 100.584C52.5404 100.154 52.8953 99.8035 53.3316 99.8035H53.4491C53.8854 99.8035 54.2403 100.154 54.2403 100.584C54.2403 101.015 53.8854 101.365 53.4491 101.365ZM50.0697 101.365H49.9521C49.5159 101.365 49.161 101.015 49.161 100.584C49.161 100.154 49.5159 99.8035 49.9521 99.8035H50.0697C50.506 99.8035 50.8609 100.154 50.8609 100.584C50.8609 101.015 50.506 101.365 50.0697 101.365ZM46.6925 101.365H46.575C46.1387 101.365 45.7838 101.015 45.7838 100.584C45.7838 100.154 46.1387 99.8035 46.575 99.8035H46.6925C47.1288 99.8035 47.4837 100.154 47.4837 100.584C47.4837 101.015 47.1288 101.365 46.6925 101.365ZM43.3131 101.365H43.1955C42.7592 101.365 42.4043 101.015 42.4043 100.584C42.4043 100.154 42.7592 99.8035 43.1955 99.8035H43.3131C43.7493 99.8035 44.1042 100.154 44.1042 100.584C44.1042 101.015 43.7493 101.365 43.3131 101.365ZM39.9359 101.365H39.8183C39.3821 101.365 39.0272 101.015 39.0272 100.584C39.0272 100.154 39.3821 99.8035 39.8183 99.8035H39.9359C40.3722 99.8035 40.7271 100.154 40.7271 100.584C40.7271 101.015 40.3722 101.365 39.9359 101.365ZM36.5587 101.365H36.4412C36.0049 101.365 35.65 101.015 35.65 100.584C35.65 100.154 36.0049 99.8035 36.4412 99.8035H36.5587C36.995 99.8035 37.3499 100.154 37.3499 100.584C37.3499 101.015 36.995 101.365 36.5587 101.365ZM33.1793 101.365H33.0617C32.6254 101.365 32.2705 101.015 32.2705 100.584C32.2705 100.154 32.6254 99.8035 33.0617 99.8035H33.1793C33.6155 99.8035 33.9704 100.154 33.9704 100.584C33.9704 101.015 33.6155 101.365 33.1793 101.365ZM29.8021 101.365H29.6845C29.2483 101.365 28.8934 101.015 28.8934 100.584C28.8934 100.154 29.2483 99.8035 29.6845 99.8035H29.8021C30.2384 99.8035 30.5933 100.154 30.5933 100.584C30.5933 101.015 30.2384 101.365 29.8021 101.365ZM26.4226 101.365H26.3051C25.8688 101.365 25.5139 101.015 25.5139 100.584C25.5139 100.154 25.8688 99.8035 26.3051 99.8035H26.4226C26.8589 99.8035 27.2138 100.154 27.2138 100.584C27.2138 101.015 26.8589 101.365 26.4226 101.365ZM23.0455 101.365H22.9279C22.4916 101.365 22.1367 101.015 22.1367 100.584C22.1367 100.154 22.4916 99.8035 22.9279 99.8035H23.0455C23.4817 99.8035 23.8366 100.154 23.8366 100.584C23.8366 101.015 23.4817 101.365 23.0455 101.365ZM19.666 101.365H19.5485C19.1122 101.365 18.7573 101.015 18.7573 100.584C18.7573 100.154 19.1122 99.8035 19.5485 99.8035H19.666C20.1023 99.8035 20.4572 100.154 20.4572 100.584C20.4572 101.015 20.1023 101.365 19.666 101.365ZM16.2888 101.365H16.1713C15.735 101.365 15.3801 101.015 15.3801 100.584C15.3801 100.154 15.735 99.8035 16.1713 99.8035H16.2888C16.7251 99.8035 17.08 100.154 17.08 100.584C17.08 101.015 16.7251 101.365 16.2888 101.365Z" fill="#CBD5E3"/>
<path d="M9.6748 97.9747C10.3281 97.9747 10.9226 98.2089 11.3837 98.597C11.2006 98.5457 11.0085 98.5167 10.8096 98.5167C9.65898 98.5167 8.72313 99.44 8.72313 100.575C8.72313 101.71 9.65898 102.634 10.8096 102.634C11.0085 102.634 11.2006 102.605 11.3837 102.553C10.9226 102.941 10.3281 103.176 9.6748 103.176C8.21904 103.176 7.03906 102.011 7.03906 100.575C7.03906 99.1389 8.21904 97.9747 9.6748 97.9747Z" fill="#CBD5E3"/>
<path d="M63.3615 6.87564C62.7082 6.87564 62.1137 7.10982 61.6526 7.49788C61.8357 7.44659 62.0278 7.41759 62.2268 7.41759C63.3773 7.41759 64.3132 8.34092 64.3132 9.47611C64.3132 10.6113 63.3773 11.5346 62.2268 11.5346C62.0278 11.5346 61.8357 11.5056 61.6526 11.4543C62.1137 11.8424 62.7082 12.0766 63.3615 12.0766C64.8173 12.0766 65.9973 10.9124 65.9973 9.47611C65.9973 8.03983 64.8173 6.87564 63.3615 6.87564Z" fill="#CBD5E3"/>
<path d="M62.7445 99.5069C62.8326 99.4422 62.9276 99.3887 63.0293 99.3441L62.5274 98.4877C62.4822 98.4096 62.3805 98.3828 62.3014 98.4274C62.2223 98.4721 62.1952 98.5724 62.2404 98.6505L62.7422 99.5091L62.7445 99.5069Z" fill="#CBD5E3"/>
<path d="M63.1084 99.3106C63.2101 99.2727 63.3163 99.2437 63.4271 99.2259L63.1672 98.2691C63.1445 98.1821 63.0519 98.1308 62.966 98.1531C62.8778 98.1754 62.8258 98.2647 62.8484 98.3516L63.1084 99.3084V99.3106Z" fill="#CBD5E3"/>
<path d="M61.3588 99.6385L62.2268 100.134C62.272 100.033 62.3285 99.9396 62.3941 99.8526L61.5238 99.3575C61.4447 99.3129 61.3429 99.3396 61.2977 99.4177C61.2525 99.4957 61.2797 99.5961 61.3588 99.6407V99.6385Z" fill="#CBD5E3"/>
<path d="M62.4438 99.7857C62.5139 99.7009 62.5907 99.6251 62.6766 99.556L61.9668 98.8557C61.9013 98.791 61.7973 98.791 61.734 98.8557C61.6707 98.9181 61.6707 99.0229 61.734 99.0854L62.4438 99.7857Z" fill="#CBD5E3"/>
<path d="M61.1418 100.27L62.1116 100.526C62.1296 100.417 62.1568 100.312 62.1975 100.212L61.2277 99.9552C61.1395 99.9306 61.0491 99.9842 61.0265 100.071C61.0039 100.158 61.0559 100.247 61.1441 100.27H61.1418Z" fill="#CBD5E3"/>
<path d="M63.6734 99.2058C63.73 99.2058 63.7842 99.208 63.8385 99.2147V98.2267C63.8385 98.1375 63.7639 98.0639 63.6734 98.0639C63.583 98.0639 63.5084 98.1375 63.5084 98.2267V99.2147C63.5627 99.208 63.6169 99.2058 63.6734 99.2058Z" fill="#CBD5E3"/>
<path d="M62.0979 100.932C62.0934 100.879 62.0889 100.825 62.0889 100.769C62.0889 100.713 62.0912 100.66 62.0979 100.606H61.0965C61.0061 100.606 60.9315 100.68 60.9315 100.769C60.9315 100.858 61.0061 100.932 61.0965 100.932H62.0979Z" fill="#CBD5E3"/>
<path d="M65.2378 100.524L66.2076 100.267C66.2957 100.245 66.3477 100.156 66.3251 100.069C66.3025 99.9819 66.2121 99.9306 66.1239 99.9529L65.1542 100.209C65.1926 100.31 65.222 100.415 65.2401 100.524H65.2378Z" fill="#CBD5E3"/>
<path d="M63.6735 99.5314C62.9818 99.5314 62.4189 100.087 62.4189 100.769C62.4189 101.452 62.9818 102.007 63.6735 102.007C64.3652 102.007 64.9281 101.452 64.9281 100.769C64.9281 100.087 64.3652 99.5314 63.6735 99.5314Z" fill="#CBD5E3"/>
<path d="M65.1202 100.134L65.9882 99.6385C66.0673 99.5939 66.0944 99.4935 66.0492 99.4155C66.004 99.3374 65.9023 99.3106 65.8232 99.3552L64.9529 99.8504C65.0184 99.9373 65.0727 100.031 65.1179 100.131L65.1202 100.134Z" fill="#CBD5E3"/>
<path d="M64.2408 99.3106L64.5008 98.3539C64.5234 98.2669 64.4714 98.1777 64.3833 98.1554C64.2951 98.1331 64.2047 98.1844 64.1821 98.2713L63.9221 99.2281C64.0329 99.246 64.1391 99.2727 64.2408 99.3129V99.3106Z" fill="#CBD5E3"/>
<path d="M64.9054 99.7857L65.6152 99.0854C65.6785 99.0207 65.6785 98.9181 65.6152 98.8557C65.5497 98.791 65.4457 98.791 65.3824 98.8557L64.6726 99.556C64.7585 99.6251 64.8376 99.7009 64.9054 99.7857Z" fill="#CBD5E3"/>
<path d="M64.6048 99.5069L65.1067 98.6482C65.1519 98.5702 65.1247 98.4721 65.0456 98.4252C64.9665 98.3806 64.867 98.4074 64.8196 98.4854L64.3177 99.3419C64.4195 99.3865 64.5144 99.4422 64.6026 99.5047L64.6048 99.5069Z" fill="#CBD5E3"/>
<path d="M64.9054 101.755C64.8354 101.84 64.7585 101.916 64.6726 101.985L65.3824 102.685C65.414 102.716 65.457 102.732 65.4999 102.732C65.5429 102.732 65.5836 102.716 65.6175 102.685C65.6808 102.62 65.6808 102.518 65.6175 102.455L64.9077 101.755H64.9054Z" fill="#CBD5E3"/>
<path d="M65.9904 101.9L65.1224 101.405C65.0772 101.505 65.0207 101.599 64.9574 101.686L65.8277 102.181C65.8548 102.197 65.8819 102.203 65.9091 102.203C65.9656 102.203 66.0221 102.174 66.0515 102.121C66.0967 102.043 66.0696 101.945 65.9904 101.898V101.9Z" fill="#CBD5E3"/>
<path d="M64.6048 102.034C64.5166 102.098 64.4217 102.152 64.3199 102.197L64.8218 103.053C64.8512 103.104 64.9077 103.133 64.9642 103.133C64.9913 103.133 65.0207 103.127 65.0456 103.111C65.1247 103.066 65.1518 102.966 65.1066 102.888L64.6048 102.029V102.034Z" fill="#CBD5E3"/>
<path d="M66.2527 100.606H65.2513C65.2559 100.66 65.2604 100.713 65.2604 100.769C65.2604 100.825 65.2581 100.879 65.2513 100.932H66.2527C66.3432 100.932 66.4178 100.858 66.4178 100.769C66.4178 100.68 66.3432 100.606 66.2527 100.606Z" fill="#CBD5E3"/>
<path d="M64.2408 102.228C64.1391 102.266 64.0329 102.295 63.9221 102.313L64.1821 103.269C64.2024 103.343 64.268 103.39 64.3426 103.39C64.3561 103.39 64.372 103.39 64.3855 103.385C64.4737 103.363 64.5257 103.272 64.5031 103.187L64.2431 102.23L64.2408 102.228Z" fill="#CBD5E3"/>
<path d="M66.2075 101.271L65.2378 101.015C65.2197 101.124 65.1925 101.229 65.1519 101.329L66.1216 101.585C66.1352 101.59 66.151 101.59 66.1646 101.59C66.2369 101.59 66.3047 101.543 66.3228 101.47C66.3454 101.383 66.2934 101.293 66.2052 101.271H66.2075Z" fill="#CBD5E3"/>
<path d="M62.2268 101.405L61.3588 101.9C61.2797 101.945 61.2525 102.045 61.2977 102.123C61.3294 102.177 61.3836 102.205 61.4401 102.205C61.4673 102.205 61.4967 102.199 61.5238 102.183L62.3941 101.688C62.3285 101.601 62.272 101.505 62.2268 101.407V101.405Z" fill="#CBD5E3"/>
<path d="M62.4438 101.755L61.7363 102.453C61.6707 102.518 61.6707 102.62 61.7363 102.683C61.7679 102.714 61.8109 102.73 61.8538 102.73C61.8968 102.73 61.9375 102.714 61.9714 102.683L62.6812 101.982C62.5953 101.913 62.5184 101.838 62.4484 101.753L62.4438 101.755Z" fill="#CBD5E3"/>
<path d="M62.1092 101.015L61.1394 101.271C61.0513 101.293 60.9993 101.383 61.0219 101.47C61.0422 101.543 61.1078 101.59 61.1824 101.59C61.1959 101.59 61.2118 101.59 61.2253 101.585L62.1951 101.329C62.1567 101.229 62.1273 101.124 62.1092 101.015Z" fill="#CBD5E3"/>
<path d="M63.6734 102.335C63.6169 102.335 63.5627 102.333 63.5084 102.326V103.314C63.5084 103.403 63.583 103.477 63.6734 103.477C63.7639 103.477 63.8385 103.403 63.8385 103.314V102.326C63.7842 102.333 63.73 102.335 63.6734 102.335Z" fill="#CBD5E3"/>
<path d="M63.1061 102.228L62.8461 103.185C62.8235 103.272 62.8755 103.361 62.9636 103.383C62.9772 103.388 62.993 103.39 63.0066 103.39C63.0789 103.39 63.1467 103.343 63.1671 103.269L63.427 102.313C63.3163 102.295 63.21 102.268 63.1083 102.228H63.1061Z" fill="#CBD5E3"/>
<path d="M62.7444 102.034L62.2426 102.89C62.1974 102.968 62.2245 103.066 62.3036 103.113C62.3285 103.129 62.3578 103.136 62.385 103.136C62.4415 103.136 62.498 103.107 62.5274 103.055L63.0292 102.199C62.9275 102.154 62.8326 102.098 62.7444 102.036V102.034Z" fill="#CBD5E3"/>
<path d="M8.45625 8.12904C8.54441 8.06437 8.63935 8.01084 8.74107 7.96623L8.23924 7.10982C8.19403 7.03176 8.09231 7.005 8.01319 7.0496C7.93407 7.09421 7.90695 7.19457 7.95216 7.27263L8.45399 8.13127L8.45625 8.12904Z" fill="#CBD5E3"/>
<path d="M8.81797 7.93501C8.91969 7.8971 9.02594 7.8681 9.1367 7.85026L8.87674 6.89348C8.85414 6.8065 8.76146 6.75521 8.67556 6.77751C8.5874 6.79981 8.53541 6.88902 8.55801 6.976L8.81797 7.93278V7.93501Z" fill="#CBD5E3"/>
<path d="M7.07056 8.26286L7.93859 8.75797C7.9838 8.65761 8.04031 8.56394 8.10587 8.47696L7.23558 7.98185C7.15646 7.93724 7.05474 7.964 7.00953 8.04206C6.96432 8.12012 6.99144 8.22048 7.07056 8.26509V8.26286Z" fill="#CBD5E3"/>
<path d="M8.1557 8.41005C8.22578 8.32531 8.30264 8.24948 8.38853 8.18034L7.67874 7.48004C7.61318 7.41536 7.5092 7.41536 7.44591 7.48004C7.38261 7.54249 7.38261 7.64731 7.44591 7.70976L8.1557 8.41005Z" fill="#CBD5E3"/>
<path d="M6.85134 8.89179L7.82109 9.14827C7.83918 9.03899 7.8663 8.93416 7.90699 8.8338L6.93724 8.57732C6.84908 8.55279 6.75866 8.60632 6.7338 8.6933C6.71119 8.78028 6.76318 8.86949 6.85134 8.89179Z" fill="#CBD5E3"/>
<path d="M9.38535 7.83019C9.44187 7.83019 9.49612 7.83242 9.55037 7.83911V6.85111C9.55037 6.7619 9.47577 6.6883 9.38535 6.6883C9.29493 6.6883 9.22034 6.7619 9.22034 6.85111V7.83911C9.27459 7.83242 9.32884 7.83019 9.38535 7.83019Z" fill="#CBD5E3"/>
<path d="M7.80753 9.5564C7.80301 9.50288 7.79849 9.44935 7.79849 9.39359C7.79849 9.33784 7.80075 9.28431 7.80753 9.23079H6.80613C6.71571 9.23079 6.64111 9.30438 6.64111 9.39359C6.64111 9.48281 6.71571 9.5564 6.80613 9.5564H7.80753Z" fill="#CBD5E3"/>
<path d="M10.9496 9.14827L11.9194 8.89179C12.0075 8.86949 12.0595 8.78028 12.0369 8.6933C12.0143 8.60632 11.9239 8.55502 11.8357 8.57732L10.866 8.8338C10.9044 8.93416 10.9338 9.03899 10.9519 9.14827H10.9496Z" fill="#CBD5E3"/>
<path d="M9.38531 8.15581C8.6936 8.15581 8.13074 8.71114 8.13074 9.3936C8.13074 10.0761 8.6936 10.6314 9.38531 10.6314C10.077 10.6314 10.6399 10.0761 10.6399 9.3936C10.6399 8.71114 10.077 8.15581 9.38531 8.15581Z" fill="#CBD5E3"/>
<path d="M10.8321 8.75797L11.7001 8.26286C11.7792 8.21825 11.8063 8.11789 11.7611 8.03983C11.7159 7.96177 11.6142 7.93501 11.5351 7.97962L10.6648 8.47473C10.7303 8.56171 10.7846 8.65538 10.8298 8.75574L10.8321 8.75797Z" fill="#CBD5E3"/>
<path d="M9.95276 7.93501L10.2127 6.97823C10.2353 6.89125 10.1833 6.80204 10.0952 6.77974C10.007 6.75744 9.91659 6.80873 9.89399 6.89571L9.63403 7.85249C9.7448 7.87033 9.85104 7.8971 9.95276 7.93724V7.93501Z" fill="#CBD5E3"/>
<path d="M10.6174 8.41005L11.3271 7.70976C11.3904 7.64508 11.3904 7.54249 11.3271 7.48004C11.2616 7.41536 11.1576 7.41536 11.0943 7.48004L10.3845 8.18034C10.4704 8.24948 10.5495 8.32531 10.6174 8.41005Z" fill="#CBD5E3"/>
<path d="M10.3166 8.12904L10.8185 7.2704C10.8637 7.19234 10.8365 7.09421 10.7574 7.04737C10.6783 7.00277 10.5788 7.02953 10.5314 7.10759L10.0295 7.964C10.1313 8.00861 10.2262 8.06437 10.3144 8.12681L10.3166 8.12904Z" fill="#CBD5E3"/>
<path d="M10.615 10.3771C10.545 10.4619 10.4681 10.5377 10.3822 10.6069L11.092 11.3072C11.1236 11.3384 11.1666 11.354 11.2095 11.354C11.2525 11.354 11.2932 11.3384 11.3271 11.3072C11.3904 11.2425 11.3904 11.1399 11.3271 11.0774L10.6173 10.3771H10.615Z" fill="#CBD5E3"/>
<path d="M11.7002 10.5243L10.8321 10.0292C10.7869 10.1296 10.7304 10.2232 10.6671 10.3102L11.5374 10.8053C11.5645 10.821 11.5917 10.8276 11.6188 10.8276C11.6753 10.8276 11.7318 10.7987 11.7612 10.7451C11.8064 10.6671 11.7793 10.5689 11.7002 10.5221V10.5243Z" fill="#CBD5E3"/>
<path d="M10.3167 10.6581C10.2285 10.7228 10.1336 10.7764 10.0319 10.821L10.5337 11.6774C10.5631 11.7287 10.6196 11.7577 10.6761 11.7577C10.7032 11.7577 10.7326 11.751 10.7575 11.7354C10.8366 11.6908 10.8637 11.5904 10.8185 11.5123L10.3167 10.6537V10.6581Z" fill="#CBD5E3"/>
<path d="M11.9645 9.23079H10.9631C10.9677 9.28431 10.9722 9.33784 10.9722 9.39359C10.9722 9.44935 10.9699 9.50288 10.9631 9.5564H11.9645C12.055 9.5564 12.1296 9.48281 12.1296 9.39359C12.1296 9.30438 12.055 9.23079 11.9645 9.23079Z" fill="#CBD5E3"/>
<path d="M9.95276 10.8522C9.85104 10.8901 9.7448 10.9191 9.63403 10.9369L9.89399 11.8937C9.91433 11.9673 9.97989 12.0141 10.0545 12.0141C10.068 12.0141 10.0839 12.0141 10.0974 12.0097C10.1856 11.9874 10.2376 11.8959 10.215 11.8112L9.95502 10.8544L9.95276 10.8522Z" fill="#CBD5E3"/>
<path d="M11.9194 9.8954L10.9497 9.63892C10.9316 9.7482 10.9045 9.85303 10.8638 9.95339L11.8335 10.2099C11.8471 10.2143 11.8629 10.2143 11.8765 10.2143C11.9488 10.2143 12.0166 10.1675 12.0347 10.0939C12.0573 10.0069 12.0053 9.9177 11.9172 9.8954H11.9194Z" fill="#CBD5E3"/>
<path d="M7.93859 10.0292L7.07056 10.5243C6.99144 10.5689 6.96432 10.6693 7.00953 10.7474C7.04118 10.8009 7.09543 10.8299 7.15194 10.8299C7.17907 10.8299 7.20845 10.8232 7.23558 10.8076L8.10587 10.3125C8.04031 10.2255 7.9838 10.1296 7.93859 10.0314V10.0292Z" fill="#CBD5E3"/>
<path d="M8.15563 10.3794L7.44809 11.0774C7.38254 11.1421 7.38254 11.2447 7.44809 11.3072C7.47974 11.3384 7.52269 11.354 7.56564 11.354C7.60859 11.354 7.64928 11.3384 7.68318 11.3072L8.39298 10.6069C8.30708 10.5377 8.23022 10.4619 8.16015 10.3771L8.15563 10.3794Z" fill="#CBD5E3"/>
<path d="M7.82109 9.63892L6.85134 9.8954C6.76318 9.9177 6.71119 10.0069 6.7338 10.0939C6.75414 10.1675 6.81969 10.2143 6.89429 10.2143C6.90785 10.2143 6.92368 10.2143 6.93724 10.2099L7.90699 9.95339C7.86856 9.85303 7.83918 9.7482 7.82109 9.63892Z" fill="#CBD5E3"/>
<path d="M9.38535 10.957C9.32884 10.957 9.27459 10.9548 9.22034 10.9481V11.9361C9.22034 12.0253 9.29493 12.0989 9.38535 12.0989C9.47577 12.0989 9.55037 12.0253 9.55037 11.9361V10.9481C9.49612 10.9548 9.44187 10.957 9.38535 10.957Z" fill="#CBD5E3"/>
<path d="M8.81797 10.8522L8.55801 11.809C8.53541 11.8959 8.5874 11.9851 8.67556 12.0074C8.68912 12.0119 8.70495 12.0141 8.71851 12.0141C8.79085 12.0141 8.85866 11.9673 8.879 11.8937L9.13896 10.9369C9.0282 10.9191 8.92195 10.8923 8.82023 10.8522H8.81797Z" fill="#CBD5E3"/>
<path d="M8.45631 10.6581L7.95448 11.5146C7.90927 11.5926 7.93639 11.6908 8.01551 11.7376C8.04037 11.7532 8.06976 11.7599 8.09689 11.7599C8.1534 11.7599 8.20991 11.7309 8.2393 11.6796L8.74113 10.8232C8.6394 10.7786 8.54446 10.7228 8.45631 10.6604V10.6581Z" fill="#CBD5E3"/>
<path d="M12.9118 105C12.8236 105 12.7355 104.973 12.6609 104.915C12.4845 104.779 12.4529 104.527 12.5908 104.351C13.2667 103.499 13.6238 102.473 13.6238 101.389C13.6238 98.7352 11.4334 96.5741 8.74343 96.5741C7.64257 96.5741 6.605 96.9265 5.74149 97.5933C5.56517 97.7316 5.30974 97.6982 5.16959 97.5242C5.02944 97.3502 5.06334 97.0982 5.23966 96.9599C6.24784 96.1816 7.45947 95.7712 8.74343 95.7712C11.8833 95.7712 14.4376 98.2914 14.4376 101.389C14.4376 102.656 14.0217 103.851 13.2328 104.846C13.1537 104.946 13.0339 105 12.9118 105Z" fill="#CBD5E3"/>
<path d="M60.1041 105C59.982 105 59.8645 104.946 59.7831 104.846C58.9942 103.851 58.5782 102.656 58.5782 101.389C58.5782 98.2914 61.1326 95.7712 64.2724 95.7712C65.5564 95.7712 66.768 96.1816 67.7762 96.9599C67.9525 97.096 67.9842 97.348 67.8463 97.5242C67.7084 97.6982 67.4529 97.7294 67.2744 97.5933C66.4109 96.9265 65.371 96.5741 64.2724 96.5741C61.5824 96.5741 59.392 98.733 59.392 101.389C59.392 102.475 59.7492 103.499 60.4251 104.351C60.563 104.525 60.5313 104.777 60.355 104.915C60.2804 104.973 60.1922 105 60.1041 105Z" fill="#CBD5E3"/>
<path d="M8.77738 14.2533C7.49342 14.2533 6.2818 13.8429 5.27362 13.0646C5.0973 12.9285 5.06565 12.6765 5.20354 12.5003C5.34143 12.3264 5.59687 12.2952 5.77545 12.4312C6.63896 13.098 7.67878 13.4504 8.77738 13.4504C11.4674 13.4504 13.6578 11.2915 13.6578 8.63531C13.6578 7.54918 13.3006 6.52549 12.6247 5.67354C12.4869 5.49958 12.5185 5.24756 12.6948 5.10928C12.8711 4.97324 13.1266 5.00446 13.2667 5.17842C14.0556 6.17311 14.4716 7.36853 14.4716 8.63531C14.4716 11.7331 11.9172 14.2533 8.77738 14.2533Z" fill="#CBD5E3"/>
<path d="M64.2296 14.2533C61.0898 14.2533 58.5354 11.7331 58.5354 8.63531C58.5354 7.36853 58.9513 6.17311 59.7402 5.17842C59.8781 5.00446 60.1336 4.97324 60.3121 5.10928C60.4885 5.24533 60.5201 5.49735 60.3822 5.67354C59.7063 6.52549 59.3492 7.55141 59.3492 8.63531C59.3492 11.2893 61.5396 13.4504 64.2296 13.4504C65.3304 13.4504 66.368 13.098 67.2315 12.4312C67.4078 12.2952 67.6655 12.3264 67.8034 12.5003C67.9413 12.6743 67.9097 12.9263 67.7334 13.0646C66.7252 13.8429 65.5135 14.2533 64.2296 14.2533Z" fill="#CBD5E3"/>
<path d="M28.2921 77.0639C28.2921 75.0589 29.0313 73.2278 30.2542 71.8139C30.0915 72.3759 30.0033 72.9669 30.0033 73.578C30.0033 77.1129 32.9193 79.9877 36.5022 79.9877C40.0851 79.9877 43.0012 77.1129 43.0012 73.578C43.0012 72.9647 42.913 72.3737 42.748 71.8139C43.9709 73.2278 44.7101 75.0611 44.7101 77.0639C44.7101 81.5355 41.0345 85.1619 36.5022 85.1619C31.9699 85.1619 28.2944 81.5355 28.2944 77.0639H28.2921Z" fill="#CBD5E3"/>
<path d="M38.1932 75.9688C38.1932 75.9331 38.1638 75.9041 38.1276 75.9041C37.8179 75.8305 37.3907 75.67 37.0448 75.3287C36.7555 75.0433 36.6199 74.6552 36.5566 74.3653C36.5566 74.3363 36.5317 74.3117 36.5023 74.3117C36.4729 74.3117 36.4481 74.3363 36.4481 74.3653C36.3848 74.6552 36.2491 75.0433 35.9598 75.3287C35.6139 75.67 35.1867 75.8305 34.877 75.9041C34.8409 75.9041 34.8092 75.9331 34.8092 75.9688C34.8092 76.0045 34.8386 76.0335 34.877 76.0335C35.1867 76.1071 35.6139 76.2677 35.9598 76.6089C36.2491 76.8966 36.3848 77.2824 36.4481 77.5724C36.4481 77.6014 36.4729 77.6259 36.5046 77.6259C36.5362 77.6259 36.5588 77.6014 36.5588 77.5724C36.6221 77.2824 36.7578 76.8944 37.0471 76.6089C37.393 76.2677 37.8202 76.1071 38.1299 76.0335C38.166 76.0335 38.1954 76.0045 38.1954 75.9688H38.1932Z" fill="#CBD5E3"/>
<path d="M41.6968 53.6596C41.5205 53.8536 41.3351 54.0388 41.1384 54.2105L42.9265 55.9746C43.0802 56.1263 43.3311 56.1263 43.4848 55.9746C43.6385 55.823 43.6385 55.5754 43.4848 55.4237L41.6968 53.6596Z" fill="#CBD5E3"/>
<path d="M40.3202 54.835C40.1009 54.9777 39.8703 55.1048 39.6353 55.223L40.8989 57.3819C41.0074 57.5692 41.2492 57.6317 41.4391 57.5246C41.6267 57.4154 41.6923 57.179 41.5838 56.9916L40.3224 54.835H40.3202Z" fill="#CBD5E3"/>
<path d="M38.6813 55.6155C38.4327 55.6958 38.1795 55.7672 37.9196 55.8207L38.5728 58.2227C38.6294 58.4301 38.8464 58.555 39.0566 58.4993C39.2668 58.4435 39.3911 58.2294 39.3369 58.022L38.6836 55.6178L38.6813 55.6155Z" fill="#CBD5E3"/>
<path d="M44.909 53.4254L42.7208 52.1787C42.601 52.4107 42.4722 52.6382 42.3275 52.8545L44.5134 54.099C44.7033 54.2083 44.9452 54.1436 45.0537 53.9562C45.1622 53.7689 45.0989 53.5303 44.909 53.4232V53.4254Z" fill="#CBD5E3"/>
<path d="M45.7612 51.1283L43.3266 50.4837C43.2724 50.7402 43.2 50.99 43.1187 51.2353L45.5577 51.8799C45.7702 51.9356 45.985 51.813 46.0415 51.6033C46.098 51.3959 45.9737 51.1818 45.7612 51.1261V51.1283Z" fill="#CBD5E3"/>
<path d="M31.3031 53.6596L29.5151 55.4237C29.3614 55.5754 29.3614 55.823 29.5151 55.9746C29.6688 56.1263 29.9197 56.1263 30.0734 55.9746L31.8615 54.2105C31.6648 54.0365 31.4772 53.8536 31.3031 53.6596Z" fill="#CBD5E3"/>
<path d="M29.6733 50.486L27.2387 51.1305C27.0285 51.1863 26.9019 51.4004 26.9584 51.6078C27.0149 51.8152 27.2319 51.9401 27.4422 51.8843L29.8812 51.2398C29.7999 50.9945 29.7275 50.7447 29.6733 50.4882V50.486Z" fill="#CBD5E3"/>
<path d="M43.4509 48.6951C43.4577 48.8244 43.4713 48.9538 43.4713 49.0854C43.4713 49.217 43.4577 49.3441 43.4509 49.4734H45.9804C46.1997 49.4734 46.376 49.2995 46.376 49.0831C46.376 48.8668 46.1997 48.6928 45.9804 48.6928H43.4509V48.6951Z" fill="#CBD5E3"/>
<path d="M32.6774 54.835L31.4161 56.9916C31.3076 57.179 31.3709 57.4154 31.5607 57.5246C31.7506 57.6317 31.9902 57.5692 32.101 57.3819L33.3646 55.223C33.1273 55.1048 32.899 54.9777 32.6797 54.835H32.6774Z" fill="#CBD5E3"/>
<path d="M34.3163 55.6155L33.663 58.0198C33.6065 58.2272 33.7308 58.4413 33.9433 58.497C34.1536 58.5528 34.3706 58.4301 34.4271 58.2205L35.0781 55.8185C34.8181 55.765 34.565 55.6936 34.3163 55.6133V55.6155Z" fill="#CBD5E3"/>
<path d="M36.5 55.9635C36.3666 55.9635 36.2377 55.9501 36.1044 55.9434V58.439C36.1044 58.6532 36.2807 58.8293 36.5 58.8293C36.7192 58.8293 36.8955 58.6554 36.8955 58.439V55.9434C36.7644 55.9501 36.6333 55.9635 36.5 55.9635Z" fill="#CBD5E3"/>
<path d="M30.2791 52.1787L28.0909 53.4254C27.901 53.5325 27.8377 53.7711 27.9462 53.9585C28.0547 54.1436 28.2966 54.2083 28.4865 54.1012L30.6724 52.8567C30.5277 52.6404 30.3989 52.4129 30.2791 52.1787Z" fill="#CBD5E3"/>
<path d="M43.3266 47.6848L45.7612 47.0402C45.9714 46.9845 46.098 46.7704 46.0415 46.563C45.994 46.389 45.8335 46.273 45.6594 46.273C45.6255 46.273 45.5916 46.2775 45.5577 46.2864L43.1187 46.9309C43.2 47.1763 43.2724 47.4261 43.3266 47.6848Z" fill="#CBD5E3"/>
<path d="M28.0909 44.7453L30.2791 45.992C30.3989 45.7601 30.5277 45.5326 30.6724 45.3162L28.4865 44.0718C28.4255 44.0361 28.3576 44.0182 28.2898 44.0182C28.1542 44.0182 28.0208 44.0874 27.9462 44.2145C27.8377 44.3996 27.901 44.6383 28.0909 44.7475V44.7453Z" fill="#CBD5E3"/>
<path d="M32.6774 43.3358C32.899 43.193 33.1273 43.0659 33.3646 42.9477L32.101 40.7888C32.0287 40.6639 31.8953 40.5948 31.7574 40.5948C31.6896 40.5948 31.6218 40.6126 31.5607 40.6461C31.3709 40.7554 31.3076 40.9918 31.4161 41.1791L32.6774 43.3358Z" fill="#CBD5E3"/>
<path d="M34.3186 42.5552C34.5673 42.4749 34.8204 42.4035 35.0804 42.35L34.4294 39.9458C34.3819 39.7718 34.2237 39.6559 34.0496 39.6559C34.0157 39.6559 33.9795 39.6603 33.9456 39.6693C33.7354 39.725 33.6088 39.9391 33.6653 40.1465L34.3186 42.553V42.5552Z" fill="#CBD5E3"/>
<path d="M27.0172 49.4757H29.5467C29.5399 49.3463 29.5263 49.217 29.5263 49.0876C29.5263 48.9582 29.5376 48.8267 29.5467 48.6973H27.0172C26.8002 48.6973 26.6216 48.8735 26.6216 49.0876C26.6216 49.3017 26.8002 49.4779 27.0172 49.4779V49.4757Z" fill="#CBD5E3"/>
<path d="M27.2387 47.0402L29.6755 47.6848C29.7298 47.4283 29.8021 47.1785 29.8835 46.9309L27.4444 46.2864C27.4105 46.2775 27.3766 46.273 27.3427 46.273C27.1686 46.273 27.0081 46.389 26.9606 46.563C26.9041 46.7704 27.0285 46.9845 27.2409 47.0402H27.2387Z" fill="#CBD5E3"/>
<path d="M31.3054 44.5111C31.4817 44.3171 31.6671 44.1342 31.8637 43.9603L30.0757 42.1939C29.9988 42.1181 29.8971 42.0802 29.7954 42.0802C29.6936 42.0802 29.5942 42.1181 29.5151 42.1939C29.3614 42.3456 29.3614 42.5931 29.5151 42.7448L31.3054 44.5111Z" fill="#CBD5E3"/>
<path d="M41.6945 44.5111L43.4826 42.747C43.6363 42.5953 43.6363 42.3478 43.4826 42.1961C43.4057 42.1203 43.304 42.0824 43.2023 42.0824C43.1005 42.0824 43.0011 42.1203 42.922 42.1961L41.1339 43.9603C41.3306 44.1342 41.5182 44.3171 41.6923 44.5111H41.6945Z" fill="#CBD5E3"/>
<path d="M42.7208 45.992L44.909 44.7453C45.0989 44.6383 45.1622 44.3996 45.0537 44.2123C44.9791 44.0874 44.848 44.016 44.7101 44.016C44.6445 44.016 44.5744 44.0339 44.5134 44.0695L42.3275 45.314C42.4722 45.5304 42.601 45.7578 42.7208 45.9898V45.992Z" fill="#CBD5E3"/>
<path d="M36.5 42.2073C36.6333 42.2073 36.7644 42.2184 36.8955 42.2274V39.7295C36.8955 39.5154 36.7192 39.3392 36.5 39.3392C36.2807 39.3392 36.1044 39.5131 36.1044 39.7295V42.2274C36.2355 42.2207 36.3666 42.2073 36.5 42.2073Z" fill="#CBD5E3"/>
<path d="M40.3202 43.3358L41.5815 41.1791C41.6923 40.9918 41.6268 40.7554 41.4369 40.6461C41.3736 40.6104 41.3058 40.5948 41.2379 40.5948C41.1023 40.5948 40.9689 40.6662 40.8944 40.7888L39.6307 42.9477C39.8658 43.0659 40.0964 43.193 40.3157 43.3358H40.3202Z" fill="#CBD5E3"/>
<path d="M38.6813 42.5552L39.3346 40.1488C39.3911 39.9413 39.2668 39.7272 39.0543 39.6715C39.0182 39.6626 38.9865 39.6581 38.9503 39.6581C38.7763 39.6581 38.6158 39.7741 38.5683 39.9458L37.915 42.3478C38.175 42.4013 38.4282 42.4727 38.6768 42.553L38.6813 42.5552Z" fill="#CBD5E3"/>
<path d="M36.4999 55.1829C33.0911 55.1829 30.3197 52.4464 30.3197 49.0854C30.3197 45.7244 33.0934 42.9879 36.4999 42.9879C39.9065 42.9879 42.6824 45.7244 42.6824 49.0854C42.6824 52.4464 39.9088 55.1829 36.4999 55.1829ZM36.4999 55.9635C40.3496 55.9635 43.4713 52.8835 43.4713 49.0854C43.4713 45.2873 40.3496 42.2073 36.4999 42.2073C32.6503 42.2073 29.5286 45.2873 29.5286 49.0854C29.5286 52.8835 32.6503 55.9635 36.4999 55.9635Z" fill="#CBD5E3"/>
<path d="M37.5941 44.5334C37.6257 44.5334 37.6596 44.5379 37.6935 44.5468C39.789 45.0843 41.2538 46.9488 41.2538 49.0854C41.2538 51.222 39.7913 53.0887 37.6935 53.6239C37.4833 53.6775 37.2663 53.5526 37.212 53.3452C37.1578 53.1377 37.2844 52.9236 37.4946 52.8701C39.242 52.4241 40.4626 50.8673 40.4626 49.0854C40.4626 47.3034 39.242 45.7489 37.4946 45.3006C37.2844 45.2471 37.1555 45.033 37.212 44.8256C37.2573 44.6494 37.4178 44.5334 37.5941 44.5334Z" fill="#CBD5E3"/>
<path d="M36.4999 55.9635C38.2247 55.9635 39.8025 55.3435 41.0209 54.3198C40.5372 54.4558 40.0286 54.5294 39.5019 54.5294C36.4592 54.5294 33.984 52.0873 33.984 49.0854C33.984 46.0835 36.4592 43.6413 39.5019 43.6413C40.0308 43.6413 40.5394 43.7149 41.0209 43.851C39.8048 42.8251 38.2247 42.2073 36.4999 42.2073C32.648 42.2073 29.5286 45.285 29.5286 49.0854C29.5286 52.8857 32.6503 55.9657 36.4999 55.9657V55.9635Z" fill="#CBD5E3"/>
<path d="M37.6144 64.2645C37.6144 64.2645 37.5941 64.2645 37.5828 64.2645C37.2234 64.289 36.8594 64.3024 36.5 64.3024C36.2536 64.3024 36.0547 64.4986 36.0547 64.7417C36.0547 64.9848 36.2536 65.1811 36.5 65.1811C36.8798 65.1811 37.2663 65.1677 37.6461 65.1409C37.8902 65.1231 38.0778 64.9135 38.0597 64.6726C38.0439 64.4406 37.8473 64.2622 37.6167 64.2622L37.6144 64.2645Z" fill="#CBD5E3"/>
<path d="M39.8817 33.342C39.676 33.342 39.4906 33.4825 39.4454 33.6877C39.3934 33.9241 39.5449 34.1583 39.7868 34.2118C40.5011 34.3657 41.2109 34.5731 41.8981 34.8251C42.1286 34.9099 42.3863 34.7962 42.4722 34.5664C42.5581 34.339 42.4428 34.0847 42.2123 34C41.4866 33.7323 40.7362 33.5138 39.9789 33.351C39.9472 33.3443 39.9156 33.342 39.884 33.342H39.8817ZM44.1111 34.9054C43.9528 34.9054 43.8014 34.988 43.72 35.1329C43.6025 35.347 43.6816 35.6147 43.8963 35.7306C44.5361 36.0763 45.1577 36.4733 45.7454 36.9082C45.9421 37.0532 46.2224 37.0153 46.3693 36.8212C46.5185 36.6272 46.4778 36.3506 46.2812 36.2057C45.6595 35.7462 45.004 35.327 44.3258 34.9612C44.258 34.9255 44.1857 34.9077 44.1133 34.9077L44.1111 34.9054ZM47.7211 37.5817C47.6081 37.5817 47.4928 37.6241 47.4069 37.7111C47.2328 37.8828 47.2328 38.1616 47.4069 38.3333C47.9245 38.8441 48.4105 39.3972 48.8491 39.9748C48.9983 40.1688 49.2763 40.209 49.473 40.064C49.6696 39.919 49.7103 39.6425 49.5634 39.4485C49.1 38.8374 48.5869 38.253 48.0398 37.7111C47.9517 37.6263 47.8386 37.5817 47.7234 37.5817H47.7211ZM50.4314 41.1479C50.3591 41.1479 50.2845 41.1658 50.2189 41.2014C50.0019 41.3174 49.9228 41.585 50.0426 41.7991C50.3953 42.4325 50.7027 43.0971 50.9581 43.7729C51.044 44.0004 51.3017 44.1164 51.53 44.0316C51.7606 43.9469 51.8781 43.6926 51.7922 43.4651C51.521 42.7492 51.1955 42.0467 50.8225 41.3754C50.7411 41.2282 50.5874 41.1457 50.4314 41.1457V41.1479ZM52.0115 45.3274C51.9799 45.3274 51.9482 45.3296 51.9166 45.3363C51.6747 45.3876 51.521 45.6218 51.5752 45.8604C51.7312 46.5652 51.8329 47.2878 51.8849 48.0104C51.9007 48.2535 52.1178 48.4319 52.3619 48.4185C52.6083 48.4007 52.7936 48.191 52.7756 47.9502C52.7213 47.1874 52.6105 46.4225 52.4478 45.6753C52.4026 45.4701 52.2172 45.3296 52.0138 45.3296L52.0115 45.3274ZM52.3302 49.7723C52.0974 49.7723 51.903 49.9485 51.8872 50.1804C51.8352 50.903 51.7289 51.6234 51.5752 52.3282C51.5232 52.5668 51.6747 52.7987 51.9166 52.8523C52.1562 52.9036 52.3935 52.7541 52.4455 52.5155C52.6105 51.7706 52.7213 51.0056 52.7778 50.2429C52.7959 49.9998 52.6105 49.7901 52.3641 49.7723C52.3528 49.7723 52.3438 49.7723 52.3325 49.7723H52.3302ZM51.365 54.1257C51.1842 54.1257 51.0146 54.235 50.9491 54.4112C50.6914 55.087 50.384 55.7494 50.0313 56.3828C49.9115 56.5969 49.9906 56.8645 50.2076 56.9805C50.4224 57.0987 50.6936 57.0184 50.8134 56.8065C51.1864 56.1352 51.5142 55.4349 51.7855 54.719C51.8714 54.4915 51.7538 54.2373 51.5232 54.1525C51.4713 54.1347 51.4193 54.1235 51.365 54.1235V54.1257ZM49.1949 58.0331C49.0593 58.0331 48.9259 58.0934 48.8378 58.2093C48.397 58.787 47.9132 59.3378 47.3933 59.8486C47.2193 60.0203 47.2193 60.2991 47.3933 60.4708C47.5674 60.6425 47.8499 60.6425 48.024 60.4708C48.5733 59.9311 49.0864 59.3468 49.5498 58.7379C49.699 58.5439 49.6583 58.2673 49.4617 58.1224C49.3803 58.0621 49.2876 58.0354 49.1949 58.0354V58.0331ZM45.9963 61.1823C45.9037 61.1823 45.811 61.2112 45.7296 61.2692C45.1419 61.7041 44.5202 62.0989 43.8782 62.4446C43.6612 62.5606 43.5844 62.8282 43.7019 63.0423C43.8195 63.2564 44.0907 63.3344 44.3077 63.2185C44.9859 62.8527 45.6437 62.4334 46.2653 61.974C46.462 61.829 46.5027 61.5525 46.3558 61.3584C46.2676 61.2425 46.1342 61.1823 45.9986 61.1823H45.9963ZM42.0314 63.3211C41.9794 63.3211 41.9274 63.33 41.8755 63.3478C41.1905 63.5998 40.4785 63.8073 39.7641 63.9589C39.5223 64.0102 39.3708 64.2444 39.4228 64.483C39.4748 64.7194 39.7144 64.8689 39.954 64.8198C40.7113 64.657 41.464 64.4407 42.1897 64.173C42.4202 64.0883 42.5378 63.834 42.4519 63.6065C42.3863 63.4303 42.2145 63.3211 42.0337 63.3211H42.0314Z" fill="#CBD5E3"/>
<path d="M36.5 32.9852C36.2536 32.9852 36.0547 33.1815 36.0547 33.4245C36.0547 33.6676 36.2536 33.8639 36.5 33.8639C36.8594 33.8639 37.2234 33.8773 37.5828 33.9018C37.8247 33.9174 38.0417 33.7368 38.0575 33.4937C38.0756 33.2506 37.8879 33.0409 37.6438 33.0231C37.2641 32.9963 36.8798 32.9852 36.4977 32.9852H36.5Z" fill="#CBD5E3"/>
<path d="M36.5 32.9852C36.118 32.9852 35.7337 32.9986 35.354 33.0231C35.1076 33.0409 34.9222 33.2506 34.9403 33.4937C34.9584 33.7368 35.1754 33.9152 35.415 33.9018C35.7722 33.8773 36.1384 33.8639 36.4978 33.8639C36.7442 33.8639 36.9431 33.6676 36.9431 33.4245C36.9431 33.1815 36.7442 32.9852 36.4978 32.9852H36.5Z" fill="#CBD5E3"/>
<path d="M33.1432 33.3376C33.1115 33.3376 33.0799 33.342 33.0482 33.3487C32.291 33.5093 31.5382 33.7279 30.8126 33.9955C30.582 34.0802 30.4645 34.3345 30.5504 34.562C30.6363 34.7895 30.894 34.9054 31.1245 34.8207C31.8117 34.5687 32.5215 34.3635 33.2358 34.2096C33.4777 34.1583 33.6292 33.9241 33.5794 33.6877C33.5342 33.4825 33.3489 33.3398 33.1432 33.3398V33.3376ZM28.907 34.8943C28.8347 34.8943 28.7601 34.9121 28.6945 34.9478C28.0164 35.3136 27.3586 35.7329 26.7369 36.1901C26.5403 36.3373 26.4996 36.6116 26.6465 36.8056C26.7934 36.9996 27.0737 37.0398 27.2704 36.8948C27.8581 36.4599 28.482 36.0652 29.1217 35.7195C29.3365 35.6035 29.4179 35.3359 29.2981 35.1218C29.2167 34.9768 29.0652 34.8943 28.907 34.8943ZM25.2902 37.5684C25.1772 37.5684 25.0619 37.6107 24.976 37.6977C24.4289 38.2374 23.9136 38.8195 23.4502 39.4306C23.301 39.6246 23.3417 39.9012 23.5383 40.0462C23.735 40.1934 24.0153 40.1532 24.1622 39.9592C24.6007 39.3816 25.089 38.8307 25.6067 38.32C25.7807 38.1482 25.7807 37.8694 25.6067 37.6977C25.5185 37.6107 25.4055 37.5684 25.2902 37.5684ZM22.5776 41.1301C22.4194 41.1301 22.2679 41.2126 22.1865 41.3576C21.8136 42.0266 21.4858 42.7292 21.2145 43.4451C21.1286 43.6726 21.2462 43.9268 21.4767 44.0116C21.7073 44.0963 21.965 43.9826 22.0509 43.7551C22.3086 43.0793 22.616 42.4169 22.9687 41.7835C23.0885 41.5717 23.0094 41.3018 22.7923 41.1858C22.7245 41.1479 22.6499 41.1323 22.5776 41.1323V41.1301ZM20.9907 45.3029C20.785 45.3029 20.6019 45.4434 20.5545 45.6486C20.3894 46.3935 20.2787 47.1584 20.2222 47.9212C20.2041 48.1643 20.3894 48.3739 20.6358 48.3918C20.8822 48.4029 21.0947 48.2267 21.1128 47.9836C21.1648 47.261 21.271 46.5384 21.427 45.8337C21.479 45.5973 21.3275 45.3631 21.0857 45.3096C21.054 45.3029 21.0224 45.3006 20.9907 45.3006V45.3029ZM20.6675 49.7478C20.6675 49.7478 20.6471 49.7478 20.6358 49.7478C20.3894 49.7656 20.2041 49.9752 20.2222 50.2183C20.2764 50.9811 20.3872 51.7461 20.5499 52.491C20.6019 52.7296 20.8393 52.8768 21.0812 52.8277C21.3208 52.7764 21.4745 52.5423 21.4225 52.3059C21.2665 51.6011 21.1625 50.8785 21.1128 50.1559C21.097 49.9239 20.9003 49.7478 20.6675 49.7478ZM21.6237 54.1057C21.5717 54.1057 21.5197 54.1146 21.4677 54.1347C21.2371 54.2194 21.1196 54.4737 21.2055 54.7011C21.4767 55.4171 21.8023 56.1196 22.1752 56.7909C22.2928 57.005 22.564 57.0831 22.781 56.9648C22.9958 56.8466 23.0749 56.5812 22.9574 56.3671C22.6047 55.7315 22.2973 55.0669 22.0396 54.3911C21.974 54.215 21.8023 54.1057 21.6214 54.1057H21.6237ZM23.7937 58.0175C23.7011 58.0175 23.6061 58.0465 23.527 58.1067C23.3303 58.2517 23.2897 58.5283 23.4366 58.7223C23.9023 59.3334 24.4154 59.9177 24.9624 60.4574C25.1365 60.6292 25.419 60.6292 25.5931 60.4574C25.7672 60.2857 25.7672 60.0069 25.5931 59.8352C25.0754 59.3245 24.5894 58.7714 24.1509 58.1937C24.0627 58.08 23.9294 58.0175 23.7937 58.0175ZM26.9878 61.1711C26.8522 61.1711 26.7188 61.2313 26.6307 61.3473C26.4815 61.5413 26.5222 61.8179 26.7188 61.9628C27.3382 62.4223 27.996 62.8416 28.6742 63.2073C28.8889 63.3255 29.1602 63.2452 29.28 63.0334C29.3998 62.8193 29.3184 62.5539 29.1037 62.4357C28.4639 62.09 27.84 61.693 27.2546 61.2581C27.1732 61.2001 27.0805 61.1711 26.9856 61.1711H26.9878ZM30.946 63.3144C30.7651 63.3144 30.5956 63.4237 30.5278 63.5998C30.4419 63.8273 30.5571 64.0816 30.79 64.1663C31.5156 64.434 32.2683 64.6525 33.0234 64.8153C33.2652 64.8666 33.5003 64.7172 33.5546 64.4786C33.6066 64.2399 33.4551 64.0058 33.2132 63.9545C32.4989 63.8006 31.7891 63.5954 31.1019 63.3411C31.0499 63.3233 30.9979 63.3144 30.946 63.3144Z" fill="#CBD5E3"/>
<path d="M35.3856 64.2645C35.1527 64.2645 34.9583 64.4407 34.9425 64.6748C34.9244 64.9179 35.1098 65.1276 35.3562 65.1432C35.7359 65.1677 36.1202 65.1833 36.5022 65.1833C36.7486 65.1833 36.9476 64.9871 36.9476 64.744C36.9476 64.5009 36.7486 64.3046 36.5022 64.3046C36.1428 64.3046 35.7766 64.2912 35.4195 64.2667C35.4082 64.2667 35.3991 64.2667 35.3878 64.2667L35.3856 64.2645Z" fill="#CBD5E3"/>
<path d="M36.5 37.1602C29.836 37.1602 24.4131 42.5084 24.4131 49.0831C24.4131 55.6579 29.8338 61.0061 36.5 61.0061C43.1662 61.0061 48.5846 55.6579 48.5846 49.0831C48.5846 42.5084 43.1639 37.1602 36.5 37.1602ZM36.5 60.1273C30.3265 60.1273 25.306 55.174 25.306 49.0854C25.306 42.9968 30.3288 38.0412 36.5 38.0412C42.6711 38.0412 47.6917 42.9946 47.6917 49.0854C47.6917 55.1762 42.6711 60.1273 36.5 60.1273Z" fill="#CBD5E3"/>
<path d="M55.2259 41.0007L36.8865 72.3469C36.7283 72.619 36.274 72.619 36.1135 72.3469L17.7741 41.0007C17.6949 40.8647 17.6949 40.6974 17.7741 40.5614C17.8532 40.4253 18.0001 40.3406 18.1606 40.3406H28.9748C28.8731 40.4209 28.7691 40.4967 28.6696 40.5814C28.473 40.7509 28.3667 40.9806 28.3441 41.2193H18.9314L36.4977 71.2451L54.0663 41.2193H44.8028C44.6423 40.8312 44.362 40.5658 44.0388 40.3383H54.8394C54.9999 40.3383 55.1468 40.4231 55.2259 40.5591C55.3051 40.6952 55.3051 40.8624 55.2259 40.9985V41.0007Z" fill="#CBD5E3"/>
<path d="M17.2722 20.8794C19.2208 20.8794 20.8054 22.4428 20.8054 24.3653C20.8054 26.2877 19.2208 27.8512 17.2722 27.8512C15.3237 27.8512 13.7391 26.2877 13.7391 24.3653C13.7391 22.4428 15.3237 20.8794 17.2722 20.8794ZM17.2722 20.3307C15.014 20.3307 13.183 22.1372 13.183 24.3653C13.183 26.5933 15.014 28.3998 17.2722 28.3998C19.5305 28.3998 21.3615 26.5933 21.3615 24.3653C21.3615 22.1372 19.5305 20.3307 17.2722 20.3307Z" fill="#CBD5E3"/>
<path d="M16.6302 27.0795C16.6076 27.0795 16.5827 27.0773 16.5601 27.0706C15.3101 26.7494 14.4375 25.6365 14.4375 24.363C14.4375 23.0896 15.3101 21.9744 16.5601 21.6555C16.707 21.6176 16.8608 21.7068 16.8992 21.8518C16.9376 21.999 16.8472 22.1484 16.7003 22.1863C15.6966 22.4428 14.9936 23.3394 14.9936 24.363C14.9936 25.3867 15.6966 26.2811 16.7003 26.5375C16.8494 26.5754 16.9376 26.7249 16.8992 26.8721C16.8675 26.9947 16.7545 27.0773 16.6302 27.0773V27.0795Z" fill="#CBD5E3"/>
<path d="M17.2722 20.3307C16.2595 20.3307 15.3349 20.6943 14.6206 21.2942C14.9032 21.2139 15.2016 21.1716 15.5112 21.1716C17.297 21.1716 18.7483 22.6034 18.7483 24.3653C18.7483 26.1272 17.2948 27.559 15.5112 27.559C15.2016 27.559 14.9032 27.5144 14.6206 27.4363C15.3349 28.0385 16.2595 28.3998 17.2722 28.3998C19.5304 28.3998 21.3614 26.5933 21.3614 24.3653C21.3614 22.1372 19.5304 20.3307 17.2722 20.3307Z" fill="#CBD5E3"/>
<path d="M36.5 16.9296C34.2418 16.9296 32.4108 18.7361 32.4108 20.9641C32.4108 23.1922 34.2418 24.9987 36.5 24.9987C38.7582 24.9987 40.5892 23.1922 40.5892 20.9641C40.5892 18.7361 38.7582 16.9296 36.5 16.9296Z" fill="#CBD5E3"/>
<path d="M46.254 18.4506C44.3055 18.4506 42.7209 20.0141 42.7209 21.9365C42.7209 23.859 44.3055 25.4224 46.254 25.4224C48.2026 25.4224 49.7872 23.859 49.7872 21.9365C49.7872 20.0141 48.2026 18.4506 46.254 18.4506ZM46.254 17.902C48.5123 17.902 50.3433 19.7085 50.3433 21.9365C50.3433 24.1645 48.5123 25.9711 46.254 25.9711C43.9958 25.9711 42.1648 24.1645 42.1648 21.9365C42.1648 19.7085 43.9958 17.902 46.254 17.902Z" fill="#CBD5E3"/>
<path d="M47.4679 21.9365C47.4679 20.6854 47.8047 19.5145 48.3879 18.4997C47.7663 18.1228 47.0362 17.902 46.254 17.902C43.9958 17.902 42.1648 19.7085 42.1648 21.9365C42.1648 24.1645 43.9958 25.9711 46.254 25.9711C47.0362 25.9711 47.7663 25.7503 48.3879 25.3733C47.8025 24.3586 47.4679 23.1877 47.4679 21.9365Z" fill="#CBD5E3"/>
<path d="M26.746 18.4506C28.6945 18.4506 30.2791 20.0141 30.2791 21.9365C30.2791 23.859 28.6945 25.4224 26.746 25.4224C24.7974 25.4224 23.2128 23.859 23.2128 21.9365C23.2128 20.0141 24.7974 18.4506 26.746 18.4506ZM26.746 17.902C24.4877 17.902 22.6567 19.7085 22.6567 21.9365C22.6567 24.1645 24.4877 25.9711 26.746 25.9711C29.0042 25.9711 30.8352 24.1645 30.8352 21.9365C30.8352 19.7085 29.0042 17.902 26.746 17.902Z" fill="#CBD5E3"/>
<path d="M25.5321 21.9365C25.5321 20.6854 25.1953 19.5145 24.6121 18.4997C25.2337 18.1228 25.9638 17.902 26.746 17.902C29.0042 17.902 30.8352 19.7085 30.8352 21.9365C30.8352 24.1645 29.0042 25.9711 26.746 25.9711C25.9616 25.9711 25.2337 25.7503 24.6121 25.3733C25.1975 24.3586 25.5321 23.1877 25.5321 21.9365Z" fill="#CBD5E3"/>
<path d="M55.7278 20.8794C53.7792 20.8794 52.1946 22.4428 52.1946 24.3653C52.1946 26.2877 53.7792 27.8512 55.7278 27.8512C57.6763 27.8512 59.2609 26.2877 59.2609 24.3653C59.2609 22.4428 57.6763 20.8794 55.7278 20.8794ZM55.7278 20.3307C57.986 20.3307 59.817 22.1372 59.817 24.3653C59.817 26.5933 57.986 28.3998 55.7278 28.3998C53.4695 28.3998 51.6385 26.5933 51.6385 24.3653C51.6385 22.1372 53.4695 20.3307 55.7278 20.3307Z" fill="#CBD5E3"/>
<path d="M56.3675 27.0795C56.3901 27.0795 56.4149 27.0773 56.4375 27.0706C57.6876 26.7494 58.5601 25.6365 58.5601 24.363C58.5601 23.0896 57.6876 21.9744 56.4375 21.6555C56.2906 21.6176 56.1369 21.7068 56.0985 21.8518C56.06 21.999 56.1505 22.1484 56.2974 22.1863C57.3033 22.4428 58.0041 23.3394 58.0041 24.363C58.0041 25.3867 57.3011 26.2811 56.2974 26.5375C56.1482 26.5754 56.06 26.7249 56.0985 26.8721C56.1301 26.9947 56.2431 27.0773 56.3675 27.0773V27.0795Z" fill="#CBD5E3"/>
<path d="M55.7278 20.3307C56.7405 20.3307 57.665 20.6943 58.3793 21.2942C58.0968 21.2139 57.7984 21.1716 57.4887 21.1716C55.7029 21.1716 54.2517 22.6034 54.2517 24.3653C54.2517 26.1272 55.7029 27.559 57.4887 27.559C57.7984 27.559 58.0968 27.5144 58.3793 27.4363C57.665 28.0385 56.7405 28.3998 55.7278 28.3998C53.4696 28.3998 51.6385 26.5933 51.6385 24.3653C51.6385 22.1372 53.4696 20.3307 55.7278 20.3307Z" fill="#CBD5E3"/>
<path d="M33.1476 86.2547C33.012 86.2547 32.8786 86.3239 32.804 86.4488L30.0756 91.0342C29.9649 91.2215 30.0282 91.4624 30.218 91.5717C30.4079 91.6832 30.652 91.6185 30.7628 91.4312L33.4912 86.8458C33.602 86.6584 33.5387 86.4176 33.3488 86.3083C33.2855 86.2704 33.2154 86.2547 33.1476 86.2547Z" fill="#CBD5E3"/>
<path d="M40.1055 86.2547C40.0377 86.2547 39.9676 86.2726 39.9043 86.3083C39.7144 86.4176 39.6511 86.6584 39.7619 86.8458L42.4903 91.4312C42.6011 91.6185 42.8452 91.6809 43.0351 91.5717C43.225 91.4624 43.2883 91.2215 43.1775 91.0342L40.4491 86.4488C40.3745 86.3239 40.2411 86.2547 40.1055 86.2547Z" fill="#CBD5E3"/>
<path d="M34.6532 86.8368C34.4656 86.8368 34.2983 86.9684 34.2621 87.1558L33.6088 90.5301C33.5681 90.742 33.7083 90.9494 33.9253 90.9896C34.14 91.0297 34.3503 90.8914 34.391 90.6773L35.0442 87.303C35.0849 87.0889 34.9448 86.8837 34.7278 86.8435C34.7029 86.8391 34.678 86.8368 34.6532 86.8368Z" fill="#CBD5E3"/>
<path d="M38.6 86.8368C38.5751 86.8368 38.5503 86.8391 38.5254 86.8435C38.3084 86.8837 38.1682 87.0911 38.2089 87.303L38.8622 90.6773C38.9029 90.8914 39.1131 91.0297 39.3279 90.9896C39.5449 90.9494 39.6873 90.742 39.6443 90.5301L38.9911 87.1558C38.9549 86.9684 38.7876 86.8368 38.6 86.8368Z" fill="#CBD5E3"/>
<path d="M31.5066 85.2828C31.3958 85.2828 31.2828 85.3297 31.2037 85.4211L28.9387 88.0305C28.7962 88.1956 28.8166 88.4431 28.9816 88.5836C29.1489 88.7241 29.3998 88.704 29.5422 88.5412L31.8072 85.9318C31.9496 85.7668 31.9293 85.5192 31.7643 85.3787C31.6897 85.3163 31.597 85.2851 31.5043 85.2851L31.5066 85.2828Z" fill="#CBD5E3"/>
<path d="M41.7466 85.2823C41.6539 85.2823 41.5635 85.3136 41.4889 85.376C41.3216 85.5165 41.3013 85.7641 41.446 85.9291L43.711 88.5385C43.8556 88.7036 44.1066 88.7214 44.2716 88.5809C44.4388 88.4404 44.4592 88.1928 44.3145 88.0278L42.0495 85.4184C41.9704 85.3269 41.8596 85.2801 41.7466 85.2801V85.2823Z" fill="#CBD5E3"/>
<path d="M43.8693 83.1993C43.7924 83.2484 43.7336 83.3242 43.7065 83.4179C43.6455 83.6275 43.7675 83.8438 43.98 83.9041L47.3256 84.8519C47.5381 84.9099 47.7573 84.7895 47.8184 84.582C47.8794 84.3724 47.7573 84.1561 47.5448 84.0959L44.1993 83.148C44.0818 83.1145 43.9642 83.1368 43.8693 83.1971V83.1993Z" fill="#CBD5E3"/>
<path d="M29.384 83.1993C29.4608 83.2484 29.5196 83.3242 29.5467 83.4179C29.6078 83.6275 29.4857 83.8438 29.2732 83.9041L25.9277 84.8519C25.7152 84.9099 25.4959 84.7895 25.4349 84.582C25.3739 84.3724 25.4959 84.1561 25.7084 84.0959L29.054 83.148C29.1715 83.1145 29.2891 83.1368 29.384 83.1971V83.1993Z" fill="#CBD5E3"/>
<path d="M36.6266 87.1223C36.4073 87.1223 36.2288 87.3007 36.2288 87.5193V94.8211C36.2288 95.0397 36.4051 95.2181 36.6266 95.2181C36.8481 95.2181 37.0245 95.0419 37.0245 94.8211V87.5193C37.0245 87.3007 36.8481 87.1223 36.6266 87.1223Z" fill="#CBD5E3"/>
<path d="M30.4079 84.3345C30.3401 84.3345 30.2723 84.3523 30.2113 84.3858L23.7304 88.0412C23.5383 88.1482 23.4727 88.3891 23.5835 88.5764C23.692 88.766 23.9361 88.8307 24.126 88.7236L30.6069 85.0682C30.799 84.9612 30.8646 84.7203 30.7561 84.533C30.6815 84.4059 30.5481 84.3345 30.4102 84.3345H30.4079Z" fill="#CBD5E3"/>
<path d="M42.9107 84.3345C42.7728 84.3345 42.6394 84.4059 42.5648 84.533C42.4563 84.7203 42.5219 84.9612 42.714 85.0682L49.1293 88.6879C49.3192 88.795 49.5633 88.7303 49.6718 88.5407C49.7803 88.3512 49.7148 88.1125 49.5226 88.0055L43.1074 84.3858C43.0463 84.3501 42.9763 84.3345 42.9107 84.3345Z" fill="#CBD5E3"/>
<path d="M28.8325 96.2485C28.8325 96.2195 28.8076 96.195 28.7782 96.195C28.5296 96.1348 28.1882 96.0076 27.9102 95.7333C27.6774 95.5036 27.5689 95.1936 27.5191 94.9616C27.5191 94.9371 27.4988 94.917 27.4739 94.917C27.449 94.917 27.431 94.9371 27.431 94.9616C27.3812 95.1936 27.2727 95.5036 27.0399 95.7333C26.7619 96.0076 26.4205 96.1348 26.1741 96.195C26.1447 96.195 26.1199 96.2195 26.1199 96.2485C26.1199 96.2775 26.1447 96.302 26.1741 96.302C26.4228 96.3622 26.7641 96.4894 27.0422 96.7637C27.275 96.9934 27.3835 97.3034 27.4332 97.5354C27.4332 97.5599 27.4536 97.58 27.4784 97.58C27.5033 97.58 27.5214 97.5599 27.5214 97.5354C27.5711 97.3034 27.6796 96.9934 27.9124 96.7637C28.1905 96.4894 28.5318 96.3622 28.7805 96.302C28.8099 96.302 28.8347 96.2797 28.8347 96.2507L28.8325 96.2485Z" fill="#CBD5E3"/>
<path d="M46.8803 96.2485C46.8803 96.2195 46.8555 96.195 46.8261 96.195C46.5774 96.1347 46.2361 96.0076 45.958 95.7333C45.7252 95.5036 45.6167 95.1936 45.567 94.9616C45.567 94.9371 45.5466 94.917 45.5218 94.917C45.4969 94.917 45.4788 94.9371 45.4788 94.9616C45.4291 95.1936 45.3206 95.5036 45.0877 95.7333C44.8097 96.0076 44.4684 96.1347 44.222 96.195C44.1926 96.195 44.1677 96.2195 44.1677 96.2485C44.1677 96.2775 44.1926 96.302 44.222 96.302C44.4706 96.3622 44.812 96.4894 45.09 96.7637C45.3228 96.9934 45.4313 97.3034 45.4811 97.5353C45.4811 97.5599 45.5014 97.5799 45.5263 97.5799C45.5511 97.5799 45.5692 97.5599 45.5692 97.5353C45.619 97.3034 45.7275 96.9934 45.9603 96.7637C46.2383 96.4894 46.5797 96.3622 46.8283 96.302C46.8577 96.302 46.8826 96.2797 46.8826 96.2507L46.8803 96.2485Z" fill="#CBD5E3"/>
<path d="M17.3671 57.063C17.3671 57.0273 17.3377 56.9983 17.3016 56.9983C16.9919 56.9247 16.5646 56.7641 16.2188 56.4229C15.9294 56.1374 15.7938 55.7494 15.7305 55.4594C15.7305 55.4304 15.7057 55.4059 15.6763 55.4059C15.6469 55.4059 15.622 55.4304 15.622 55.4594C15.5587 55.7494 15.4231 56.1374 15.1337 56.4229C14.7879 56.7641 14.3607 56.9247 14.051 56.9983C14.0148 56.9983 13.9832 57.0273 13.9832 57.063C13.9832 57.0987 14.0125 57.1299 14.051 57.1299C14.3607 57.2035 14.7879 57.3641 15.1337 57.7053C15.4231 57.9908 15.5587 58.3788 15.622 58.6688C15.622 58.6978 15.6469 58.7223 15.6763 58.7223C15.7057 58.7223 15.7305 58.6978 15.7305 58.6688C15.7938 58.3788 15.9294 57.9908 16.2188 57.7053C16.5646 57.3641 16.9919 57.2035 17.3016 57.1299C17.3377 57.1299 17.3671 57.1009 17.3671 57.0652V57.063Z" fill="#CBD5E3"/>
<path d="M59.019 57.063C59.019 57.0273 58.9896 56.9983 58.9534 56.9983C58.6437 56.9247 58.2165 56.7641 57.8706 56.4229C57.5813 56.1374 57.4457 55.7494 57.3824 55.4594C57.3824 55.4304 57.3575 55.4059 57.3281 55.4059C57.2987 55.4059 57.2739 55.4304 57.2739 55.4594C57.2106 55.7494 57.0749 56.1374 56.7856 56.4229C56.4397 56.7641 56.0125 56.9247 55.7028 56.9983C55.6667 56.9983 55.635 57.0273 55.635 57.063C55.635 57.0987 55.6644 57.1299 55.7028 57.1299C56.0125 57.2035 56.4397 57.3641 56.7856 57.7053C57.0749 57.9908 57.2106 58.3788 57.2739 58.6688C57.2739 58.6978 57.2987 58.7223 57.3281 58.7223C57.3575 58.7223 57.3824 58.6978 57.3824 58.6688C57.4457 58.3788 57.5813 57.9908 57.8706 57.7053C58.2165 57.3641 58.6437 57.2035 58.9534 57.1299C58.9896 57.1299 59.019 57.1009 59.019 57.0652V57.063Z" fill="#CBD5E3"/>
<path d="M49.941 30.6144C49.941 30.5854 49.9161 30.5609 49.8867 30.5609C49.6381 30.5007 49.2967 30.3736 49.0187 30.0992C48.7859 29.8695 48.6774 29.5595 48.6276 29.3276C48.6276 29.303 48.6073 29.283 48.5824 29.283C48.5576 29.283 48.5395 29.303 48.5395 29.3276C48.4898 29.5595 48.3812 29.8695 48.1484 30.0992C47.8704 30.3736 47.529 30.5007 47.2826 30.5609C47.2533 30.5609 47.2284 30.5854 47.2284 30.6144C47.2284 30.6434 47.2533 30.668 47.2826 30.668C47.5313 30.7282 47.8726 30.8553 48.1507 31.1296C48.3835 31.3593 48.492 31.6693 48.5417 31.9013C48.5417 31.9258 48.5621 31.9459 48.587 31.9459C48.6118 31.9459 48.6299 31.9258 48.6299 31.9013C48.6796 31.6693 48.7881 31.3593 49.021 31.1296C49.299 30.8553 49.6403 30.7282 49.889 30.668C49.9184 30.668 49.9433 30.6457 49.9433 30.6167L49.941 30.6144Z" fill="#CBD5E3"/>
<path d="M25.7717 30.6144C25.7717 30.5854 25.7469 30.5609 25.7175 30.5609C25.4688 30.5007 25.1275 30.3736 24.8495 30.0992C24.6166 29.8695 24.5081 29.5595 24.4584 29.3276C24.4584 29.303 24.438 29.283 24.4132 29.283C24.3883 29.283 24.368 29.303 24.368 29.3276C24.3182 29.5595 24.2097 29.8695 23.9769 30.0992C23.6989 30.3736 23.3575 30.5007 23.1111 30.5609C23.0818 30.5609 23.0569 30.5854 23.0569 30.6144C23.0569 30.6434 23.0818 30.668 23.1111 30.668C23.3598 30.7282 23.7011 30.8553 23.9792 31.1296C24.212 31.3593 24.3205 31.6693 24.3702 31.9013C24.3702 31.9258 24.3906 31.9459 24.4154 31.9459C24.4403 31.9459 24.4584 31.9258 24.4584 31.9013C24.5081 31.6693 24.6166 31.3593 24.8495 31.1296C25.1275 30.8553 25.4688 30.7282 25.7175 30.668C25.7469 30.668 25.7717 30.6457 25.7717 30.6167V30.6144Z" fill="#CBD5E3"/>
<path d="M21.1603 15.984C21.1603 15.9483 21.1309 15.9193 21.0948 15.9193C20.7851 15.8457 20.3579 15.6851 20.012 15.3439C19.7227 15.0584 19.587 14.6704 19.5237 14.3804C19.5237 14.3514 19.4989 14.3269 19.4695 14.3269C19.4401 14.3269 19.4152 14.3514 19.4152 14.3804C19.3519 14.6704 19.2163 15.0584 18.927 15.3439C18.5811 15.6851 18.1539 15.8457 17.8442 15.9193C17.808 15.9193 17.7764 15.9483 17.7764 15.9862C17.7764 16.0241 17.8058 16.0509 17.8442 16.0509C18.1539 16.1245 18.5811 16.2851 18.927 16.6263C19.2163 16.9118 19.3519 17.2998 19.4152 17.5898C19.4152 17.6188 19.4401 17.6433 19.4695 17.6433C19.4989 17.6433 19.5237 17.6188 19.5237 17.5898C19.587 17.2998 19.7227 16.9118 20.012 16.6263C20.3579 16.2851 20.7851 16.1245 21.0948 16.0509C21.1309 16.0509 21.1603 16.0219 21.1603 15.9862V15.984Z" fill="#CBD5E3"/>
<path d="M55.226 15.984C55.226 15.9483 55.1966 15.9193 55.1604 15.9193C54.8508 15.8457 54.4235 15.6851 54.0777 15.3439C53.7883 15.0584 53.6527 14.6704 53.5894 14.3804C53.5894 14.3514 53.5645 14.3269 53.5352 14.3269C53.5058 14.3269 53.4809 14.3514 53.4809 14.3804C53.4176 14.6704 53.282 15.0584 52.9926 15.3439C52.6468 15.6851 52.2195 15.8457 51.9099 15.9193C51.8737 15.9193 51.842 15.9483 51.842 15.9862C51.842 16.0241 51.8714 16.0509 51.9099 16.0509C52.2195 16.1245 52.6468 16.2851 52.9926 16.6263C53.282 16.9118 53.4176 17.2998 53.4809 17.5898C53.4809 17.6188 53.5058 17.6433 53.5352 17.6433C53.5645 17.6433 53.5894 17.6188 53.5894 17.5898C53.6527 17.2998 53.7883 16.9118 54.0777 16.6263C54.4235 16.2851 54.8508 16.1245 55.1604 16.0509C55.1966 16.0509 55.226 16.0219 55.226 15.9862V15.984Z" fill="#CBD5E3"/>
<path d="M23.2331 76.4059C23.2331 76.377 23.2082 76.3524 23.1788 76.3524C22.9302 76.2922 22.5889 76.1651 22.3108 75.8908C22.078 75.661 21.9695 75.351 21.9198 75.1191C21.9198 75.0946 21.8994 75.0745 21.8745 75.0745C21.8497 75.0745 21.8316 75.0946 21.8316 75.1191C21.7819 75.351 21.6734 75.661 21.4405 75.8908C21.1625 76.1651 20.8212 76.2922 20.5748 76.3524C20.5454 76.3524 20.5205 76.377 20.5205 76.4059C20.5205 76.4349 20.5454 76.4595 20.5748 76.4595C20.8234 76.5197 21.1647 76.6468 21.4428 76.9211C21.6756 77.1509 21.7841 77.4609 21.8339 77.6928C21.8339 77.7173 21.8542 77.7374 21.8791 77.7374C21.9039 77.7374 21.922 77.7173 21.922 77.6928C21.9717 77.4609 22.0802 77.1509 22.3131 76.9211C22.5911 76.6468 22.9325 76.5197 23.1811 76.4595C23.2105 76.4595 23.2354 76.4372 23.2354 76.4082L23.2331 76.4059Z" fill="#CBD5E3"/>
<path d="M52.4794 76.4059C52.4794 76.377 52.4546 76.3524 52.4252 76.3524C52.1765 76.2922 51.8352 76.1651 51.5572 75.8908C51.3243 75.661 51.2158 75.351 51.1661 75.1191C51.1661 75.0946 51.1457 75.0745 51.1209 75.0745C51.096 75.0745 51.0779 75.0946 51.0779 75.1191C51.0282 75.351 50.9197 75.661 50.6869 75.8908C50.4088 76.1651 50.0675 76.2922 49.8211 76.3524C49.7917 76.3524 49.7668 76.377 49.7668 76.4059C49.7668 76.4349 49.7917 76.4595 49.8211 76.4595C50.0698 76.5197 50.4111 76.6468 50.6891 76.9211C50.922 77.1509 51.0305 77.4609 51.0802 77.6928C51.0802 77.7173 51.1005 77.7374 51.1254 77.7374C51.1503 77.7374 51.1706 77.7173 51.1706 77.6928C51.2203 77.4609 51.3288 77.1509 51.5617 76.9211C51.8397 76.6468 52.1811 76.5197 52.4297 76.4595C52.4591 76.4595 52.484 76.4372 52.484 76.4082L52.4794 76.4059Z" fill="#CBD5E3"/>
<path d="M59.5842 83.5294C59.5842 83.4937 59.5548 83.4647 59.5186 83.4647C59.2089 83.3911 58.7817 83.2305 58.4358 82.8893C58.1465 82.6038 58.0109 82.2158 57.9476 81.9258C57.9476 81.8968 57.9227 81.8723 57.8933 81.8723C57.8639 81.8723 57.8391 81.8968 57.8391 81.9258C57.7758 82.2158 57.6401 82.6038 57.3508 82.8893C57.0049 83.2305 56.5777 83.3911 56.268 83.4647C56.2318 83.4647 56.2002 83.4937 56.2002 83.5294C56.2002 83.5651 56.2296 83.594 56.268 83.594C56.5777 83.6699 57.0049 83.8282 57.3508 84.1695C57.6401 84.4572 57.7758 84.843 57.8391 85.1329C57.8391 85.1619 57.8639 85.1864 57.8933 85.1864C57.9227 85.1864 57.9476 85.1619 57.9476 85.1329C58.0109 84.843 58.1465 84.4549 58.4358 84.1695C58.7817 83.8282 59.2089 83.6676 59.5186 83.594C59.5548 83.594 59.5842 83.5651 59.5842 83.5294Z" fill="#CBD5E3"/>
<path d="M16.8021 83.5294C16.8021 83.4937 16.7727 83.4647 16.7365 83.4647C16.4268 83.3911 15.9996 83.2305 15.6537 82.8893C15.3644 82.6038 15.2287 82.2158 15.1655 81.9258C15.1655 81.8968 15.1406 81.8723 15.1112 81.8723C15.0818 81.8723 15.0569 81.8968 15.0569 81.9258C14.9937 82.2158 14.858 82.6038 14.5687 82.8893C14.2228 83.2305 13.7956 83.3911 13.4859 83.4647C13.4497 83.4647 13.4181 83.4937 13.4181 83.5294C13.4181 83.5651 13.4475 83.594 13.4859 83.594C13.7956 83.6699 14.2228 83.8282 14.5687 84.1695C14.858 84.4572 14.9937 84.843 15.0569 85.1329C15.0569 85.1619 15.0818 85.1864 15.1112 85.1864C15.1406 85.1864 15.1655 85.1619 15.1655 85.1329C15.2287 84.843 15.3644 84.4549 15.6537 84.1695C15.9996 83.8282 16.4268 83.6676 16.7365 83.594C16.7727 83.594 16.8021 83.5651 16.8021 83.5294Z" fill="#CBD5E3"/>
<path d="M56.6297 67.4961C56.6297 67.4515 56.5912 67.4136 56.546 67.4136C56.1595 67.3199 55.626 67.1214 55.1942 66.6932C54.8326 66.3364 54.663 65.8524 54.5839 65.4911C54.5839 65.4532 54.5523 65.422 54.5138 65.422C54.4754 65.422 54.446 65.4532 54.446 65.4911C54.3669 65.8546 54.1996 66.3364 53.8357 66.6932C53.4039 67.1192 52.8727 67.3177 52.4839 67.4136C52.4387 67.4136 52.4003 67.4493 52.4003 67.4961C52.4003 67.5429 52.4387 67.5786 52.4839 67.5786C52.8705 67.6723 53.4039 67.8708 53.8357 68.2968C54.1974 68.6558 54.3669 69.1376 54.446 69.5011C54.446 69.539 54.4777 69.568 54.5161 69.568C54.5545 69.568 54.5839 69.5368 54.5839 69.5011C54.663 69.1376 54.8303 68.6558 55.1942 68.2968C55.626 67.8708 56.1595 67.6701 56.546 67.5786C56.5912 67.5786 56.6297 67.5429 56.6297 67.4961Z" fill="#CBD5E3"/>
<path d="M20.5996 67.2708C20.5996 67.2262 20.5612 67.1883 20.516 67.1883C20.1294 67.0947 19.596 66.8962 19.1642 66.4679C18.8025 66.1111 18.633 65.6271 18.5539 65.2658C18.5539 65.2279 18.5222 65.1967 18.4838 65.1967C18.4454 65.1967 18.416 65.2279 18.416 65.2658C18.3369 65.6294 18.1696 66.1111 17.8057 66.4679C17.3739 66.8939 16.8404 67.0924 16.4539 67.1883C16.4087 67.1883 16.3702 67.224 16.3702 67.2708C16.3702 67.3177 16.4087 67.3534 16.4539 67.3534C16.8404 67.447 17.3739 67.6455 17.8079 68.0715C18.1696 68.4306 18.3391 68.9123 18.4182 69.2758C18.4182 69.3138 18.4499 69.3427 18.4883 69.3427C18.5268 69.3427 18.5561 69.3115 18.5561 69.2758C18.6353 68.9123 18.8025 68.4306 19.1665 68.0715C19.5982 67.6455 20.1317 67.4448 20.5182 67.3534C20.5635 67.3534 20.6019 67.3177 20.6019 67.2708H20.5996Z" fill="#CBD5E3"/>
<path d="M56.1776 92.3612C56.1776 92.3166 56.1391 92.2786 56.0939 92.2786C55.7074 92.185 55.1739 91.9865 54.7422 91.5583C54.3805 91.2014 54.2109 90.7175 54.1318 90.3562C54.1318 90.3183 54.1002 90.287 54.064 90.287C54.0278 90.287 53.9962 90.3183 53.9962 90.3562C53.9171 90.7197 53.7498 91.2014 53.3859 91.5583C52.9541 91.9843 52.4206 92.1827 52.0341 92.2786C51.9889 92.2786 51.9504 92.3143 51.9504 92.3612C51.9504 92.408 51.9889 92.4437 52.0341 92.4437C52.4206 92.5374 52.9541 92.7358 53.3859 93.1618C53.7475 93.5209 53.9171 94.0026 53.9962 94.3662C53.9962 94.4041 54.0278 94.4331 54.0663 94.4331C54.1047 94.4331 54.1341 94.4018 54.1341 94.3662C54.2132 94.0026 54.3805 93.5209 54.7444 93.1618C55.1762 92.7358 55.7096 92.5351 56.0962 92.4437C56.1414 92.4437 56.1798 92.408 56.1798 92.3612H56.1776Z" fill="#CBD5E3"/>
<path d="M21.0518 92.3612C21.0518 92.3166 21.0133 92.2786 20.9681 92.2786C20.5816 92.185 20.0481 91.9865 19.6164 91.5583C19.2547 91.2014 19.0851 90.7175 19.006 90.3562C19.006 90.3183 18.9744 90.287 18.936 90.287C18.8975 90.287 18.8681 90.3183 18.8681 90.3562C18.789 90.7197 18.6195 91.2014 18.2578 91.5583C17.826 91.9843 17.2926 92.1827 16.906 92.2786C16.8608 92.2786 16.8224 92.3143 16.8224 92.3612C16.8224 92.408 16.8608 92.4437 16.906 92.4437C17.2926 92.5374 17.826 92.7358 18.2578 93.1618C18.6195 93.5209 18.789 94.0026 18.8681 94.3662C18.8681 94.4041 18.8998 94.4331 18.9382 94.4331C18.9766 94.4331 19.006 94.4018 19.006 94.3662C19.0851 94.0026 19.2524 93.5209 19.6164 93.1618C20.0481 92.7358 20.5816 92.5351 20.9681 92.4437C21.0133 92.4437 21.0518 92.408 21.0518 92.3612Z" fill="#CBD5E3"/>
<path d="M57.7622 34.3256C57.7622 34.281 57.7261 34.2431 57.6786 34.2431C57.292 34.1494 56.7586 33.9509 56.3268 33.5249C55.9651 33.1681 55.7956 32.6841 55.7165 32.3206C55.7165 32.2827 55.6848 32.2537 55.6464 32.2537C55.608 32.2537 55.5786 32.2849 55.5786 32.3206C55.4995 32.6841 55.3322 33.1658 54.9683 33.5249C54.5365 33.9509 54.003 34.1494 53.6165 34.2431C53.5713 34.2431 53.5328 34.281 53.5328 34.3256C53.5328 34.3702 53.5713 34.4081 53.6165 34.4081C54.003 34.5018 54.5365 34.7003 54.9705 35.1285C55.3322 35.4875 55.5017 35.9693 55.5808 36.3328C55.5808 36.3707 55.6125 36.3997 55.6509 36.3997C55.6894 36.3997 55.7187 36.3685 55.7187 36.3328C55.7979 35.9693 55.9651 35.4875 56.3291 35.1285C56.7608 34.7025 57.2943 34.5018 57.6808 34.4081C57.7261 34.4081 57.7645 34.3724 57.7645 34.3256H57.7622Z" fill="#CBD5E3"/>
<path d="M19.4672 34.3256C19.4672 34.281 19.431 34.2431 19.3835 34.2431C18.997 34.1494 18.4635 33.9509 18.0318 33.5249C17.6701 33.1681 17.5005 32.6841 17.4214 32.3206C17.4214 32.2827 17.3898 32.2537 17.3514 32.2537C17.3129 32.2537 17.2835 32.2849 17.2835 32.3206C17.2044 32.6841 17.0371 33.1658 16.6732 33.5249C16.2415 33.9509 15.708 34.1494 15.3214 34.2431C15.2762 34.2431 15.2378 34.281 15.2378 34.3256C15.2378 34.3702 15.2762 34.4081 15.3214 34.4081C15.708 34.5018 16.2415 34.7003 16.6755 35.1285C17.0371 35.4875 17.2067 35.9693 17.2858 36.3328C17.2858 36.3707 17.3174 36.3997 17.3559 36.3997C17.3943 36.3997 17.4237 36.3685 17.4237 36.3328C17.5028 35.9693 17.6701 35.4875 18.034 35.1285C18.4658 34.7025 18.9993 34.5018 19.3858 34.4081C19.431 34.4081 19.4694 34.3724 19.4694 34.3256H19.4672Z" fill="#CBD5E3"/>
<path d="M42.9085 14.0414C42.9085 14.0124 42.8837 13.9879 42.8543 13.9879C42.6056 13.9277 42.2643 13.8006 41.9862 13.5263C41.7534 13.2965 41.6449 12.9888 41.5952 12.7546C41.5952 12.7301 41.5748 12.71 41.55 12.71C41.5251 12.71 41.507 12.7301 41.507 12.7546C41.4573 12.9888 41.3488 13.2965 41.1159 13.5263C40.8379 13.8006 40.4966 13.9277 40.2502 13.9879C40.2208 13.9879 40.1959 14.0124 40.1959 14.0414C40.1959 14.0704 40.2208 14.095 40.2502 14.095C40.4988 14.1552 40.8402 14.2823 41.1182 14.5566C41.351 14.7863 41.4595 15.0963 41.5093 15.3283C41.5093 15.3528 41.5296 15.3729 41.5545 15.3729C41.5793 15.3729 41.5974 15.3528 41.5974 15.3283C41.6472 15.0963 41.7557 14.7863 41.9885 14.5566C42.2665 14.2823 42.6079 14.1552 42.8565 14.095C42.8859 14.095 42.9108 14.0727 42.9108 14.0437L42.9085 14.0414Z" fill="#CBD5E3"/>
<path d="M32.8018 14.0414C32.8018 14.0124 32.777 13.9879 32.7476 13.9879C32.4989 13.9277 32.1576 13.8006 31.8795 13.5263C31.6467 13.2965 31.5382 12.9888 31.4885 12.7546C31.4885 12.7301 31.4681 12.71 31.4433 12.71C31.4184 12.71 31.4003 12.7301 31.4003 12.7546C31.3506 12.9888 31.2421 13.2965 31.0093 13.5263C30.7312 13.8006 30.3899 13.9277 30.1435 13.9879C30.1141 13.9879 30.0892 14.0124 30.0892 14.0414C30.0892 14.0704 30.1141 14.095 30.1435 14.095C30.3921 14.1552 30.7335 14.2823 31.0115 14.5566C31.2443 14.7863 31.3529 15.0963 31.4026 15.3283C31.4026 15.3528 31.4229 15.3729 31.4478 15.3729C31.4727 15.3729 31.4907 15.3528 31.4907 15.3283C31.5405 15.0963 31.649 14.7863 31.8818 14.5566C32.1598 14.2823 32.5012 14.1552 32.7498 14.095C32.7792 14.095 32.8041 14.0727 32.8041 14.0437L32.8018 14.0414Z" fill="#CBD5E3"/>
<path d="M37.8563 28.9105C37.8563 28.8815 37.8314 28.857 37.802 28.857C37.5534 28.7968 37.212 28.6697 36.934 28.3953C36.7012 28.1656 36.5927 27.8578 36.5429 27.6237C36.5429 27.5991 36.5226 27.5791 36.4977 27.5791C36.4728 27.5791 36.4548 27.5991 36.4548 27.6237C36.405 27.8578 36.2965 28.1656 36.0637 28.3953C35.7857 28.6697 35.4443 28.7968 35.1979 28.857C35.1685 28.857 35.1437 28.8815 35.1437 28.9105C35.1437 28.9395 35.1685 28.964 35.1979 28.964C35.4466 29.0243 35.7879 29.1514 36.066 29.4257C36.2988 29.6554 36.4073 29.9654 36.457 30.1974C36.457 30.2219 36.4774 30.242 36.5022 30.242C36.5271 30.242 36.5474 30.2219 36.5474 30.1974C36.5972 29.9654 36.7057 29.6554 36.9385 29.4257C37.2165 29.1514 37.5579 29.0243 37.8065 28.964C37.8359 28.964 37.8608 28.9417 37.8608 28.9128L37.8563 28.9105Z" fill="#CBD5E3"/>
</g>
<defs>
<clipPath id="clip0_1_5854">
<rect width="63" height="100" fill="white" transform="translate(5 5)"/>
</clipPath>
</defs>
</svg>
